<?xml version="1.0" encoding="UTF-8" standalone="no"?>
<!DOCTYPE svg PUBLIC "-//W3C//DTD SVG 1.1//EN" "http://www.w3.org/Graphics/SVG/1.1/DTD/svg11.dtd">
<svg width="100%" height="100%" viewBox="0 0 321 318" version="1.1" xmlns="http://www.w3.org/2000/svg" xmlns:xlink="http://www.w3.org/1999/xlink" xml:space="preserve" xmlns:serif="http://www.serif.com/" style="fill-rule:evenodd;clip-rule:evenodd;stroke-linecap:round;stroke-miterlimit:10;">
    <g transform="matrix(1,0,0,1,-496,-994)">
        <g transform="matrix(2.32457,0,0,2.32457,74.4133,230.124)">
            <g transform="matrix(0,-1,-1,0,250.405,328.228)">
                <path d="M-68.83,-68.83C-106.844,-68.83 -137.66,-38.014 -137.66,0C-137.66,38.014 -106.844,68.83 -68.83,68.83C-30.816,68.83 0,38.014 0,0C0,-38.014 -30.816,-68.83 -68.83,-68.83" style="fill:rgb(253,201,0);fill-rule:nonzero;"/>
            </g>
            <g transform="matrix(0,-1,-1,0,250.405,335.198)">
                <path d="M-61.86,-61.86C-96.024,-61.86 -123.72,-34.164 -123.72,0C-123.72,34.164 -96.024,61.86 -61.86,61.86C-27.696,61.86 0,34.164 0,0C0,-34.164 -27.696,-61.86 -61.86,-61.86" style="fill:rgb(18,62,150);fill-rule:nonzero;"/>
            </g>
            <g>
                <clipPath id="_clip1">
                    <path d="M188.141,397.058C188.141,431.222 215.835,458.918 250,458.918C284.164,458.918 311.86,431.222 311.86,397.058C311.86,362.893 284.164,335.198 250,335.198C215.835,335.198 188.141,362.893 188.141,397.058Z" clip-rule="nonzero"/>
                </clipPath>
                <g clip-path="url(#_clip1)">
                    <g transform="matrix(0,-1,-1,0,251.661,422.785)">
                        <path d="M-49.512,-49.512C-70.498,-49.512 -87.51,-27.345 -87.51,0C-87.51,27.345 -70.498,49.512 -49.512,49.512C-28.526,49.512 -11.514,27.345 -11.514,0C-11.514,-27.345 -28.526,-49.512 -49.512,-49.512" style="fill:rgb(201,181,217);fill-rule:nonzero;"/>
                    </g>
                    <g transform="matrix(-0.262781,0.964855,0.964855,0.262781,256.783,450.803)">
                        <path d="M-29.02,2.564L-14.681,2.564C-14.832,3.19 -6.47,-5.61 -8.455,-20.299L-16.214,-26.056L-29.02,2.564Z" style="fill:rgb(255,226,209);fill-rule:nonzero;"/>
                    </g>
                    <g transform="matrix(-0.363865,-0.931452,-0.931452,0.363865,257.575,442.892)">
                        <path d="M16.808,14.88L21.467,14.88L13.39,-14.56L4.603,-8.254C6.781,0.554 11.101,8.248 16.808,14.88" style="fill:rgb(255,188,176);fill-rule:nonzero;"/>
                    </g>
                    <g transform="matrix(0.0349989,-0.999387,-0.999387,-0.0349989,253.589,346.23)">
                        <path d="M-45.987,-44.405C-68.627,-43.434 -86.098,-22.082 -85.009,3.284C-83.922,28.652 -68.627,48.597 -45.987,47.626C-23.348,46.655 -5.877,25.303 -6.966,-0.063C-8.054,-25.431 -23.348,-45.376 -45.987,-44.405" style="fill:rgb(62,203,192);fill-rule:nonzero;"/>
                    </g>
                    <g transform="matrix(0.0326844,-0.999466,-0.999466,-0.0326844,252.904,353.021)">
                        <path d="M-41.282,-39.954C-62.697,-38.985 -79.222,-19.746 -78.192,3.02C-77.162,25.785 -62.696,43.622 -41.282,42.655C-19.866,41.686 -3.341,22.446 -4.37,-0.319C-5.401,-23.084 -19.866,-40.922 -41.282,-39.954" style="fill:rgb(255,226,209);fill-rule:nonzero;"/>
                    </g>
                    <g transform="matrix(1,0,0,1,237.539,377.949)">
                        <path d="M0,-27.577C0,-27.577 -43.426,-27.906 -34.214,15.52L-26.892,16.778C-26.892,16.778 -19.54,12.892 -13.159,4.828C-3.618,-7.231 -5.911,-16.062 -5.911,-16.062C-5.911,-16.062 11.659,8.25 28.529,-1.768C36.76,10.133 42.673,13.276 49.019,13.217C51.906,13.19 57.635,10.878 58.261,6.29C58.888,1.702 54.282,-44.355 0,-27.577" style="fill:rgb(62,203,192);fill-rule:nonzero;"/>
                    </g>
                    <g transform="matrix(0.780869,0.624695,0.624695,-0.780869,225.126,354.616)">
                        <path d="M4.892,-0.13C4.892,-0.13 -5.589,4.546 -4.613,7.011C-3.636,9.477 4.892,6.19 4.892,6.19C4.892,6.19 -0.502,12.406 1.861,14.718C4.225,17.031 10.03,10.3 10.03,10.3" style="fill:rgb(62,203,192);fill-rule:nonzero;"/>
                    </g>
                    <g transform="matrix(1,0,0,1,231.623,390.915)">
                        <path d="M0,-8.881C0,-8.881 -10.468,-2.73 -8.583,0.779C-6.698,4.288 7.058,-3.628 8.542,-6.693C10.026,-9.758 5.313,-13.169 0,-8.881" style="fill:rgb(62,203,192);fill-rule:nonzero;"/>
                    </g>
                    <g transform="matrix(1,0,0,1,267.314,389.484)">
                        <path d="M0,-8.677C0,-8.677 11.078,-3.707 9.588,-0.013C8.098,3.681 -6.441,-2.684 -8.252,-5.568C-10.062,-8.452 -5.751,-12.358 0,-8.677" style="fill:rgb(62,203,192);fill-rule:nonzero;"/>
                    </g>
                    <g transform="matrix(1,0,0,1,261.689,392.05)">
                        <path d="M0,9.584C-0.849,5.352 1.226,1.368 4.634,0.684C8.043,0 11.494,2.876 12.343,7.108" style="fill:none;fill-rule:nonzero;stroke:rgb(32,60,82);stroke-width:0.54px;"/>
                    </g>
                    <g transform="matrix(0.0243765,-0.999703,-0.999703,-0.0243765,235.238,389.491)">
                        <path d="M-9.453,-9.225C-14.676,-9.226 -18.909,-4.992 -18.908,0.231C-18.909,5.453 -14.675,9.686 -9.453,9.686C-4.23,9.687 0.003,5.453 0.002,0.23C0.003,-4.992 -4.23,-9.225 -9.453,-9.225" style="fill:white;fill-rule:nonzero;"/>
                    </g>
                    <g transform="matrix(-0.476124,-0.879378,-0.879378,0.476124,229.611,395.565)">
                        <path d="M-5.424,-9.107C-11.727,-8.74 -13.795,-1.114 -8.538,2.386C-7.624,2.995 -6.52,3.294 -5.424,3.23C0.88,2.863 2.946,-4.762 -2.309,-8.263C-3.223,-8.872 -4.327,-9.171 -5.424,-9.107" style="fill:rgb(30,57,82);fill-rule:nonzero;"/>
                    </g>
                    <g transform="matrix(0.0568571,-0.998382,-0.998382,-0.0568571,233.053,403.739)">
                        <path d="M-7.037,-6.872C-9.278,-6.825 -11.625,-3.389 -11.536,0.787C-11.45,4.962 -9.278,7.509 -7.037,7.462C-4.795,7.416 -2.732,4.78 -2.82,0.604C-2.908,-3.572 -4.795,-6.918 -7.037,-6.872" style="fill:rgb(255,188,176);fill-rule:nonzero;"/>
                    </g>
                    <g transform="matrix(0.166661,0.986014,0.986014,-0.166661,268.195,400.488)">
                        <path d="M6.994,-6.033C9.235,-5.986 11.582,-2.55 11.494,1.625C11.407,5.801 9.235,8.347 6.994,8.301C4.754,8.254 2.691,5.618 2.778,1.443C2.865,-2.733 4.753,-6.081 6.994,-6.033" style="fill:rgb(255,188,176);fill-rule:nonzero;"/>
                    </g>
                    <g transform="matrix(-0.898294,-0.439395,-0.439395,0.898294,194.929,402.376)">
                        <path d="M-10.758,-13.778C-10.758,-13.778 -3.689,-15.898 -0.63,-9.768C2.43,-3.637 -4.118,5.783 -10.758,3.45C-17.398,1.117 -16.786,-6.814 -16.786,-6.814L-10.758,-13.778Z" style="fill:rgb(255,226,209);fill-rule:nonzero;"/>
                    </g>
                    <g transform="matrix(-0.874773,-0.484532,-0.484532,0.874773,197.177,401.274)">
                        <path d="M-6.749,-8.045C-6.749,-8.045 -2.321,-8.695 -0.811,-5.24C0.699,-1.783 -3.164,3.211 -6.749,1.744C-10.334,0.275 -9.775,-4.069 -9.775,-4.069L-6.749,-8.045Z" style="fill:rgb(255,188,176);fill-rule:nonzero;"/>
                    </g>
                    <g transform="matrix(-0.809571,0.587022,0.587022,0.809571,305.775,392.261)">
                        <path d="M11.574,-13.845C11.574,-13.845 4.505,-15.965 1.446,-9.835C-1.613,-3.704 4.934,5.715 11.574,3.382C18.213,1.049 17.601,-6.882 17.601,-6.882L11.574,-13.845Z" style="fill:rgb(255,226,209);fill-rule:nonzero;"/>
                    </g>
                    <g transform="matrix(-0.809582,0.587007,0.587007,0.809582,300.959,392.741)">
                        <path d="M6.35,-7.598C6.35,-7.598 2.472,-8.761 0.793,-5.397C-0.886,-2.033 2.707,3.135 6.35,1.855C9.994,0.576 9.658,-3.777 9.658,-3.777L6.35,-7.598Z" style="fill:rgb(255,188,176);fill-rule:nonzero;"/>
                    </g>
                    <g transform="matrix(1,0,0,1,249.569,403.712)">
                        <path d="M0,6.994C-2.611,6.57 -4.44,5.432 -4.585,5.34C-5.637,4.671 -5.981,3.093 -5.354,1.817C-4.728,0.542 -3.371,0.05 -2.322,0.713C-2.103,0.847 2.451,3.593 6.553,0.407C7.598,-0.406 8.962,-0.102 9.596,1.089C10.231,2.279 9.896,3.903 8.849,4.716C5.712,7.154 2.498,7.4 0,6.994" style="fill:white;fill-rule:nonzero;"/>
                    </g>
                    <g opacity="0.43">
                        <g transform="matrix(1,0,0,1,259.372,409.424)">
                            <path d="M0,-4.095C-0.052,-4.277 -0.117,-4.455 -0.207,-4.624C-0.225,-4.658 -0.25,-4.684 -0.269,-4.717C-6.542,0.622 -13.763,-2.703 -15.304,-3.518C-15.382,-3.283 -15.432,-3.045 -15.453,-2.805C-14.661,-2.399 -12.889,-1.598 -10.62,-1.229C-7.577,-0.734 -3.644,-1.029 0,-4.095" style="fill:rgb(113,189,254);fill-rule:nonzero;"/>
                        </g>
                    </g>
                    <g transform="matrix(1,0,0,1,211.622,392.293)">
                        <path d="M0,10.978C-2.028,1.977 3.65,-6.957 12.682,-8.977C21.714,-10.997 30.68,-5.337 32.708,3.664C34.736,12.665 29.059,21.6 20.026,23.619C10.994,25.639 2.028,19.979 0,10.978M45.383,7.314C43.355,-1.688 49.033,-10.622 58.065,-12.642C67.097,-14.661 76.063,-9.002 78.091,-0C80.119,9.001 74.441,17.935 65.409,19.955C56.377,21.975 47.411,16.315 45.383,7.314M-2.753,11.593C-0.383,22.11 10.092,28.722 20.644,26.362C30.62,24.132 37.089,14.681 35.764,4.77C35.954,4.721 36.141,4.665 36.334,4.621C38.306,4.18 40.275,4.107 42.169,4.353C42.213,5.536 42.361,6.732 42.63,7.929C45,18.445 55.475,25.058 66.027,22.698C76.58,20.338 83.213,9.9 80.844,-0.616C78.474,-11.132 67.999,-17.744 57.447,-15.385C49.06,-13.509 43.154,-6.529 42.271,1.536C40.138,1.288 37.929,1.384 35.716,1.878C35.54,1.918 35.369,1.968 35.196,2.011C32.392,-7.898 22.265,-14.001 12.064,-11.72C1.512,-9.361 -5.122,1.077 -2.753,11.593" style="fill:rgb(145,185,226);fill-rule:nonzero;"/>
                    </g>
                    <g transform="matrix(1,0,0,1,212.39,391.086)">
                        <path d="M0,10.978C-2.028,1.977 3.65,-6.958 12.682,-8.977C21.714,-10.997 30.68,-5.337 32.708,3.664C34.736,12.665 29.058,21.6 20.026,23.619C10.994,25.639 2.028,19.979 0,10.978M45.383,7.314C43.355,-1.688 49.033,-10.622 58.065,-12.642C67.097,-14.661 76.063,-9.002 78.091,-0.001C80.119,9.001 74.441,17.935 65.409,19.955C56.377,21.975 47.411,16.315 45.383,7.314M-2.753,11.593C-0.383,22.11 10.092,28.722 20.644,26.362C30.62,24.132 37.089,14.681 35.764,4.77C35.954,4.721 36.141,4.665 36.334,4.621C38.306,4.18 40.275,4.107 42.169,4.353C42.213,5.536 42.361,6.732 42.63,7.929C45,18.445 55.475,25.058 66.027,22.698C76.58,20.338 83.213,9.9 80.844,-0.616C78.474,-11.132 67.999,-17.744 57.447,-15.385C49.06,-13.509 43.154,-6.529 42.271,1.536C40.138,1.288 37.929,1.384 35.716,1.878C35.54,1.918 35.369,1.967 35.196,2.011C32.392,-7.898 22.265,-14.001 12.064,-11.72C1.512,-9.361 -5.122,1.077 -2.753,11.593" style="fill:rgb(133,129,188);fill-rule:nonzero;"/>
                    </g>
                    <g transform="matrix(1,0,0,1,296.777,428.961)">
                        <path d="M0,1.237L-4.071,2.39C-5.093,2.679 -5.873,3.628 -6.072,4.822L-6.806,9.225C-6.948,10.076 -8.16,10.106 -8.344,9.263L-9.219,5.246C-9.523,3.853 -10.496,2.783 -11.715,2.502L-15.537,1.622C-16.38,1.427 -16.41,0.237 -15.577,0.001L-11.801,-1.069C-10.599,-1.409 -9.681,-2.525 -9.447,-3.93L-8.771,-7.988C-8.629,-8.839 -7.417,-8.869 -7.233,-8.026L-6.28,-3.653C-6.024,-2.477 -5.202,-1.573 -4.173,-1.336L-0.04,-0.384C0.803,-0.189 0.833,1.001 0,1.237" style="fill:rgb(30,57,82);fill-rule:nonzero;"/>
                    </g>
                    <g transform="matrix(1,0,0,1,207.492,418.394)">
                        <path d="M0,0.916L-3.017,1.77C-3.774,1.985 -4.352,2.688 -4.5,3.573L-5.043,6.836C-5.149,7.466 -6.047,7.489 -6.183,6.864L-6.832,3.887C-7.057,2.855 -7.778,2.062 -8.681,1.854L-11.513,1.201C-12.138,1.057 -12.16,0.175 -11.543,0L-8.745,-0.793C-7.854,-1.045 -7.174,-1.872 -7.001,-2.913L-6.5,-5.92C-6.395,-6.551 -5.496,-6.573 -5.36,-5.948L-4.654,-2.708C-4.464,-1.836 -3.855,-1.167 -3.092,-0.991L-0.03,-0.285C0.595,-0.141 0.617,0.741 0,0.916" style="fill:rgb(30,57,82);fill-rule:nonzero;"/>
                    </g>
                    <g transform="matrix(1,0,0,1,305.535,414.534)">
                        <path d="M0,1.762L-1.471,2.177C-2.141,2.366 -2.662,3.022 -2.806,3.859L-3.036,5.189C-3.203,6.157 -4.487,6.163 -4.664,5.198L-4.864,4.113C-5.045,3.13 -5.666,2.365 -6.458,2.15L-7.737,1.804C-8.604,1.569 -8.612,0.244 -7.747,-0L-6.47,-0.36C-5.682,-0.583 -5.069,-1.354 -4.899,-2.338L-4.711,-3.427C-4.544,-4.394 -3.26,-4.401 -3.083,-3.436L-2.837,-2.1C-2.684,-1.27 -2.16,-0.624 -1.491,-0.443L-0.01,-0.042C0.857,0.193 0.865,1.518 0,1.762" style="fill:rgb(30,57,82);fill-rule:nonzero;"/>
                    </g>
                    <g transform="matrix(1,0,0,1,301.017,371.17)">
                        <path d="M0,1.761L-1.471,2.176C-2.141,2.366 -2.662,3.021 -2.806,3.858L-3.036,5.188C-3.203,6.156 -4.487,6.163 -4.665,5.197L-4.864,4.112C-5.045,3.129 -5.666,2.364 -6.458,2.149L-7.737,1.803C-8.605,1.568 -8.612,0.243 -7.747,-0.001L-6.47,-0.361C-5.682,-0.584 -5.069,-1.355 -4.899,-2.339L-4.711,-3.428C-4.544,-4.395 -3.26,-4.402 -3.083,-3.437L-2.837,-2.101C-2.684,-1.271 -2.16,-0.625 -1.491,-0.444L-0.01,-0.043C0.857,0.192 0.864,1.517 0,1.761" style="fill:rgb(30,57,82);fill-rule:nonzero;"/>
                    </g>
                    <g transform="matrix(1,0,0,1,216.593,430.25)">
                        <path d="M0,2.184L-1.824,2.699C-2.654,2.933 -3.3,3.746 -3.479,4.783L-3.764,6.433C-3.971,7.632 -5.563,7.641 -5.783,6.444L-6.03,5.099C-6.254,3.88 -7.025,2.931 -8.006,2.665L-9.593,2.236C-10.668,1.945 -10.676,0.302 -9.605,-0L-8.021,-0.447C-7.044,-0.723 -6.285,-1.679 -6.074,-2.899L-5.841,-4.249C-5.633,-5.448 -4.042,-5.457 -3.822,-4.26L-3.517,-2.604C-3.328,-1.575 -2.677,-0.774 -1.849,-0.549L-0.012,-0.052C1.063,0.239 1.072,1.881 0,2.184" style="fill:rgb(30,57,82);fill-rule:nonzero;"/>
                    </g>
                </g>
            </g>
        </g>
    </g>
</svg>
