<?xml version="1.0" encoding="UTF-8" standalone="no"?>
<!DOCTYPE svg PUBLIC "-//W3C//DTD SVG 1.1//EN" "http://www.w3.org/Graphics/SVG/1.1/DTD/svg11.dtd">
<svg width="100%" height="100%" viewBox="0 0 321 320" version="1.1" xmlns="http://www.w3.org/2000/svg" xmlns:xlink="http://www.w3.org/1999/xlink" xml:space="preserve" xmlns:serif="http://www.serif.com/" style="fill-rule:evenodd;clip-rule:evenodd;stroke-linecap:round;stroke-miterlimit:10;">
    <g transform="matrix(1,0,0,1,-496,0)">
        <g transform="matrix(2.32457,0,0,2.32457,74.4133,-75.7384)">
            <g transform="matrix(0,-1,-1,0,250.405,32.5817)">
                <path d="M-68.83,-68.83C-106.844,-68.83 -137.66,-38.014 -137.66,0C-137.66,38.014 -106.844,68.83 -68.83,68.83C-30.816,68.83 0,38.014 0,0C0,-38.014 -30.816,-68.83 -68.83,-68.83" style="fill:rgb(18,62,150);fill-rule:nonzero;"/>
            </g>
            <g transform="matrix(0,-1,-1,0,250.405,39.5517)">
                <path d="M-61.86,-61.86C-96.024,-61.86 -123.72,-34.164 -123.72,0C-123.72,34.164 -96.024,61.86 -61.86,61.86C-27.696,61.86 0,34.164 0,0C0,-34.164 -27.696,-61.86 -61.86,-61.86" style="fill:rgb(253,201,0);fill-rule:nonzero;"/>
            </g>
            <g>
                <clipPath id="_clip1">
                    <path d="M188.546,101.412C188.546,135.576 216.241,163.271 250.405,163.271C284.569,163.271 312.265,135.576 312.265,101.412C312.265,67.248 284.569,39.552 250.405,39.552C216.241,39.552 188.546,67.248 188.546,101.412Z" clip-rule="nonzero"/>
                </clipPath>
                <g clip-path="url(#_clip1)">
                    <g transform="matrix(1,0,0,1,207.735,134.768)">
                        <path d="M0,-49.129C0,-49.129 -4.051,-9.649 -6.505,4.073C-6.505,4.073 -4.323,6.254 4.173,7.922L7.62,-1.153L8.874,10.004C8.874,10.004 54.007,12.221 73.388,6.679C92.769,1.137 90.123,-0.237 90.123,-0.237L88.727,-8.731L93.094,-0.902C93.188,-1.244 102.275,-9.682 101.735,-9.181C99.949,-7.522 87.046,-51.732 82.107,-61.35" style="fill:rgb(254,110,164);fill-rule:nonzero;"/>
                    </g>
                    <g transform="matrix(0,-1,-1,0,252.614,121.295)">
                        <path d="M-46.744,-46.744C-66.556,-46.744 -82.617,-25.816 -82.617,-0.001C-82.617,25.815 -66.556,46.744 -46.744,46.744C-26.932,46.744 -10.871,25.815 -10.871,-0.001C-10.871,-25.816 -26.932,-46.744 -46.744,-46.744" style="fill:rgb(201,181,217);fill-rule:nonzero;"/>
                    </g>
                    <g transform="matrix(-0.262767,0.964859,0.964859,0.262767,257.43,147.72)">
                        <path d="M-27.377,2.447L-13.84,2.447C-13.84,2.447 -5.744,-6.694 -7.962,-19.137L-15.287,-24.572L-27.377,2.447Z" style="fill:rgb(255,173,143);fill-rule:nonzero;"/>
                    </g>
                    <g transform="matrix(-0.363851,-0.931457,-0.931457,0.363851,258.197,140.279)">
                        <path d="M15.869,14.048L20.266,14.048L12.642,-13.746L4.346,-7.794C6.402,0.523 10.48,7.786 15.869,14.048" style="fill:rgb(255,142,108);fill-rule:nonzero;"/>
                    </g>
                    <g transform="matrix(0.0326842,-0.999466,-0.999466,-0.0326842,253.788,55.4323)">
                        <path d="M-38.974,-37.72C-59.191,-36.805 -74.792,-18.641 -73.82,2.851C-72.848,24.342 -59.19,41.183 -38.974,40.269C-18.756,39.354 -3.155,21.19 -4.127,-0.302C-5.099,-21.793 -18.757,-38.634 -38.974,-37.72" style="fill:rgb(255,173,143);fill-rule:nonzero;"/>
                    </g>
                    <g transform="matrix(1,0,0,1,244.198,89.7682)">
                        <path d="M0,-36.958C-4.777,-37.061 -35.895,-36.307 -36.956,0.772C-37.001,2.346 -35.633,3.615 -34.077,3.379C-33.608,3.308 -31.965,4.558 -31.389,4.224C-13.138,-6.377 -11.585,-20.974 -11.585,-20.974C-11.422,-20.465 0.729,-9.55 14.141,-10.606C21.165,-12.007 21.493,-18.645 21.493,-18.645C33.297,-3.05 41.215,-1.097 45.29,-4.034C47.402,-5.556 46.345,-5.622 46.535,-8.032C47.438,-19.517 39.26,-29.159 32.502,-34.026C23.257,-40.685 9.819,-41.516 1.195,-37.236C0.821,-37.05 0.417,-36.949 0,-36.958" style="fill:rgb(254,110,164);fill-rule:nonzero;"/>
                    </g>
                    <g transform="matrix(0.996964,0.07787,0.07787,-0.996964,244.285,56.9567)">
                        <path d="M0.504,0.149C0.504,0.149 -9.116,7.182 -6.26,8.744C-3.404,10.306 0.504,1.909 0.504,1.909C0.504,1.909 0.148,12.453 2.668,13.039C5.187,13.624 4.999,2.099 0.504,0.149" style="fill:rgb(254,110,164);fill-rule:nonzero;"/>
                    </g>
                    <g transform="matrix(1,0,0,1,233.752,89.0903)">
                        <path d="M0,-8.216C0,-8.216 -10.407,-3.411 -8.963,0.06C-7.519,3.533 6.142,-2.624 7.822,-5.365C9.501,-8.106 5.391,-11.749 0,-8.216" style="fill:rgb(254,110,164);fill-rule:nonzero;"/>
                    </g>
                    <g transform="matrix(1,0,0,1,267.458,87.6173)">
                        <path d="M0,-7.835C0,-7.835 10.978,-4.539 10.036,-0.899C9.094,2.741 -5.296,-1.435 -7.344,-3.914C-9.392,-6.392 -5.834,-10.576 0,-7.835" style="fill:rgb(254,110,164);fill-rule:nonzero;"/>
                    </g>
                    <g transform="matrix(1,0,0,1,262.05,90.3111)">
                        <path d="M0,9.048C-0.801,5.053 1.157,1.291 4.375,0.646C7.593,0 10.851,2.715 11.653,6.71" style="fill:none;fill-rule:nonzero;stroke:rgb(32,60,82);stroke-width:0.51px;"/>
                    </g>
                    <g transform="matrix(0.0243639,-0.999703,-0.999703,-0.0243639,237.079,87.8949)">
                        <path d="M-8.924,-8.71C-13.855,-8.71 -17.852,-4.713 -17.852,0.217C-17.851,5.148 -13.854,9.145 -8.924,9.145C-3.994,9.144 0.003,5.147 0.003,0.218C0.003,-4.713 -3.994,-8.71 -8.924,-8.71" style="fill:white;fill-rule:nonzero;"/>
                    </g>
                    <g transform="matrix(-0.476167,-0.879355,-0.879355,0.476167,231.768,93.6289)">
                        <path d="M-5.12,-8.596C-11.071,-8.25 -13.022,-1.05 -8.061,2.254C-7.197,2.829 -6.155,3.111 -5.12,3.051C0.83,2.704 2.782,-4.495 -2.18,-7.799C-3.043,-8.374 -4.085,-8.656 -5.12,-8.596" style="fill:rgb(30,57,82);fill-rule:nonzero;"/>
                    </g>
                    <g transform="matrix(0.0568983,-0.99838,-0.99838,-0.0568983,236.493,100.541)">
                        <path d="M-6.643,-6.487C-8.759,-6.442 -10.974,-3.199 -10.892,0.743C-10.809,4.685 -8.759,7.09 -6.643,7.046C-4.527,7.001 -2.58,4.513 -2.662,0.571C-2.745,-3.371 -4.527,-6.532 -6.643,-6.487" style="fill:rgb(255,142,108);fill-rule:nonzero;"/>
                    </g>
                    <g transform="matrix(0.166627,0.98602,0.98602,-0.166627,268.194,98.2763)">
                        <path d="M6.604,-5.697C8.72,-5.653 10.935,-2.408 10.853,1.533C10.77,5.476 8.72,7.881 6.604,7.837C4.488,7.792 2.54,5.303 2.623,1.361C2.706,-2.581 4.488,-5.741 6.604,-5.697" style="fill:rgb(255,142,108);fill-rule:nonzero;"/>
                    </g>
                    <g transform="matrix(-0.898303,-0.439376,-0.439376,0.898303,199.055,102.027)">
                        <path d="M-10.156,-13.007C-10.156,-13.007 -3.483,-15.008 -0.595,-9.221C2.293,-3.433 -3.888,5.46 -10.156,3.257C-16.424,1.055 -15.847,-6.432 -15.847,-6.432L-10.156,-13.007Z" style="fill:rgb(255,173,143);fill-rule:nonzero;"/>
                    </g>
                    <g transform="matrix(-0.874759,-0.484558,-0.484558,0.874759,201.175,100.987)">
                        <path d="M-6.373,-7.596C-6.373,-7.596 -2.193,-8.21 -0.767,-4.947C0.659,-1.684 -2.988,3.031 -6.373,1.645C-9.758,0.258 -9.23,-3.841 -9.23,-3.841L-6.373,-7.596Z" style="fill:rgb(255,142,108);fill-rule:nonzero;"/>
                    </g>
                    <g transform="matrix(-0.809583,0.587005,0.587005,0.809583,303.702,92.4788)">
                        <path d="M10.927,-13.072C10.927,-13.072 4.254,-15.072 1.366,-9.285C-1.523,-3.498 4.658,5.395 10.927,3.192C17.195,0.991 16.618,-6.497 16.618,-6.497L10.927,-13.072Z" style="fill:rgb(255,173,143);fill-rule:nonzero;"/>
                    </g>
                    <g transform="matrix(-0.809564,0.587032,0.587032,0.809564,299.156,92.9308)">
                        <path d="M5.995,-7.173C5.995,-7.173 2.334,-8.27 0.749,-5.095C-0.836,-1.919 2.556,2.961 5.995,1.752C9.435,0.543 9.119,-3.565 9.119,-3.565L5.995,-7.173Z" style="fill:rgb(255,142,108);fill-rule:nonzero;"/>
                    </g>
                    <g transform="matrix(1,0,0,1,250.608,99.6806)">
                        <path d="M0,6.604C-2.465,6.203 -4.192,5.129 -4.329,5.042C-5.322,4.41 -5.646,2.921 -5.055,1.716C-4.463,0.513 -3.182,0.048 -2.193,0.674C-1.986,0.801 2.313,3.393 6.186,0.385C7.174,-0.383 8.461,-0.096 9.06,1.029C9.659,2.152 9.343,3.685 8.354,4.453C5.392,6.755 2.358,6.987 0,6.604" style="fill:white;fill-rule:nonzero;"/>
                    </g>
                    <g opacity="0.43">
                        <g transform="matrix(1,0,0,1,259.863,105.075)">
                            <path d="M0,-3.866C-0.049,-4.038 -0.111,-4.206 -0.195,-4.365C-0.213,-4.397 -0.236,-4.422 -0.254,-4.453C-6.176,0.587 -12.993,-2.552 -14.448,-3.321C-14.522,-3.099 -14.569,-2.874 -14.589,-2.648C-13.841,-2.265 -12.169,-1.508 -10.027,-1.16C-7.153,-0.693 -3.44,-0.971 0,-3.866" style="fill:rgb(113,189,254);fill-rule:nonzero;"/>
                        </g>
                    </g>
                    <g transform="matrix(0.853147,-0.52167,-0.52167,-0.853147,272.653,93.8868)">
                        <path d="M-0.27,0.96L3.41,0.96" style="fill:none;fill-rule:nonzero;stroke:rgb(32,60,82);stroke-width:0.51px;"/>
                    </g>
                    <g transform="matrix(0.925492,-0.378766,-0.378766,-0.925492,273.643,96.6932)">
                        <path d="M-0.13,0.663L3.37,0.663" style="fill:none;fill-rule:nonzero;stroke:rgb(32,60,82);stroke-width:0.51px;"/>
                    </g>
                </g>
            </g>
            <g transform="matrix(1,0,0,1,203.612,115.001)">
                <path d="M0,0.904L-2.975,1.746C-3.721,1.958 -4.291,2.651 -4.437,3.523L-4.973,6.74C-5.076,7.362 -5.962,7.384 -6.096,6.768L-6.736,3.833C-6.958,2.815 -7.669,2.034 -8.559,1.828L-11.351,1.185C-11.968,1.043 -11.989,0.173 -11.381,0.001L-8.622,-0.781C-7.744,-1.029 -7.073,-1.844 -6.902,-2.871L-6.408,-5.836C-6.305,-6.458 -5.419,-6.48 -5.285,-5.864L-4.588,-2.669C-4.401,-1.809 -3.801,-1.149 -3.049,-0.976L-0.029,-0.28C0.587,-0.138 0.609,0.732 0,0.904" style="fill:white;fill-rule:nonzero;"/>
            </g>
            <g transform="matrix(1,0,0,1,309.916,102.663)">
                <path d="M0,1.762L-1.471,2.177C-2.141,2.366 -2.662,3.022 -2.806,3.859L-3.036,5.189C-3.203,6.157 -4.487,6.163 -4.664,5.198L-4.864,4.113C-5.045,3.13 -5.666,2.365 -6.458,2.15L-7.737,1.804C-8.604,1.569 -8.612,0.244 -7.747,-0L-6.47,-0.36C-5.682,-0.583 -5.069,-1.354 -4.899,-2.338L-4.711,-3.427C-4.544,-4.394 -3.26,-4.401 -3.083,-3.436L-2.837,-2.1C-2.684,-1.27 -2.16,-0.624 -1.491,-0.443L-0.01,-0.042C0.857,0.193 0.865,1.518 0,1.762" style="fill:white;fill-rule:nonzero;"/>
            </g>
            <g transform="matrix(1,0,0,1,203.59,84.6217)">
                <path d="M0,1.761L-1.471,2.176C-2.141,2.366 -2.662,3.021 -2.806,3.858L-3.036,5.188C-3.203,6.156 -4.487,6.163 -4.665,5.197L-4.864,4.112C-5.045,3.129 -5.666,2.364 -6.458,2.149L-7.738,1.803C-8.604,1.568 -8.612,0.243 -7.747,-0.001L-6.47,-0.361C-5.682,-0.584 -5.069,-1.355 -4.899,-2.339L-4.711,-3.428C-4.544,-4.395 -3.26,-4.402 -3.083,-3.437L-2.837,-2.101C-2.684,-1.271 -2.16,-0.625 -1.491,-0.444L-0.01,-0.043C0.857,0.192 0.864,1.517 0,1.761" style="fill:white;fill-rule:nonzero;"/>
            </g>
            <g transform="matrix(1,0,0,1,303.32,76.7848)">
                <path d="M0,2.184L-1.824,2.699C-2.654,2.933 -3.3,3.746 -3.479,4.783L-3.764,6.433C-3.971,7.632 -5.563,7.641 -5.783,6.444L-6.03,5.099C-6.254,3.88 -7.025,2.931 -8.006,2.665L-9.593,2.236C-10.668,1.945 -10.677,0.302 -9.605,-0L-8.021,-0.447C-7.044,-0.723 -6.285,-1.679 -6.074,-2.9L-5.841,-4.249C-5.634,-5.449 -4.042,-5.457 -3.822,-4.26L-3.517,-2.604C-3.328,-1.575 -2.677,-0.774 -1.849,-0.549L-0.012,-0.052C1.063,0.239 1.072,1.881 0,2.184" style="fill:white;fill-rule:nonzero;"/>
            </g>
        </g>
    </g>
</svg>
