<?xml version="1.0" encoding="UTF-8" standalone="no"?>
<!DOCTYPE svg PUBLIC "-//W3C//DTD SVG 1.1//EN" "http://www.w3.org/Graphics/SVG/1.1/DTD/svg11.dtd">
<svg width="100%" height="100%" viewBox="0 0 320 320" version="1.1" xmlns="http://www.w3.org/2000/svg" xmlns:xlink="http://www.w3.org/1999/xlink" xml:space="preserve" xmlns:serif="http://www.serif.com/" style="fill-rule:evenodd;clip-rule:evenodd;stroke-linejoin:round;stroke-miterlimit:2;">
    <g transform="matrix(1,0,0,1,-993,0)">
        <g transform="matrix(2.32457,0,0,2.32457,211.92,-74.2355)">
            <g transform="matrix(0,-1,-1,0,404.839,31.9352)">
                <path d="M-68.83,-68.83C-106.844,-68.83 -137.66,-38.014 -137.66,0C-137.66,38.014 -106.844,68.83 -68.83,68.83C-30.816,68.83 0,38.014 0,0C0,-38.014 -30.816,-68.83 -68.83,-68.83" style="fill:rgb(255,110,166);fill-rule:nonzero;"/>
            </g>
            <g transform="matrix(0,-1,-1,0,404.838,38.9052)">
                <path d="M-61.86,-61.86C-96.024,-61.86 -123.72,-34.164 -123.72,0C-123.72,34.164 -96.024,61.86 -61.86,61.86C-27.696,61.86 0,34.164 0,0C0,-34.164 -27.696,-61.86 -61.86,-61.86" style="fill:rgb(62,203,192);fill-rule:nonzero;"/>
            </g>
            <g>
                <clipPath id="_clip1">
                    <path d="M342.978,100.765C342.978,134.929 370.674,162.625 404.839,162.625C439.003,162.625 466.699,134.929 466.699,100.765C466.699,66.6 439.003,38.905 404.839,38.905C370.674,38.905 342.978,66.6 342.978,100.765Z" clip-rule="nonzero"/>
                </clipPath>
                <g clip-path="url(#_clip1)">
                    <g transform="matrix(0,-1,-1,0,403.764,128.925)">
                        <path d="M-50.13,-50.13C-71.357,-50.13 -88.564,-27.686 -88.564,-0C-88.564,27.685 -71.357,50.13 -50.13,50.13C-28.903,50.13 -11.696,27.685 -11.696,-0C-11.696,-27.686 -28.903,-50.13 -50.13,-50.13" style="fill:rgb(18,62,150);fill-rule:nonzero;"/>
                    </g>
                    <g transform="matrix(-0.262789,0.964853,0.964853,0.262789,406.643,154.957)">
                        <path d="M-25.566,2.286L-12.924,2.286C-12.924,2.286 -5.364,-6.252 -7.435,-17.87L-14.275,-22.946L-25.566,2.286Z" style="fill:rgb(255,226,209);fill-rule:nonzero;"/>
                    </g>
                    <g transform="matrix(-0.364032,-0.931386,-0.931386,0.364032,407.362,148.008)">
                        <path d="M14.822,13.118L18.929,13.118L11.802,-12.838L4.057,-7.277C5.979,0.488 9.789,7.272 14.822,13.118" style="fill:rgb(255,188,176);fill-rule:nonzero;"/>
                    </g>
                    <g transform="matrix(1,0,0,1,463.909,72.1543)">
                        <path d="M0,30.635C-3.151,26.214 -8.527,23.297 -11.006,18.522C-13.006,14.669 -12.819,10.154 -12.218,5.891C-11.617,1.628 -10.642,-2.669 -11.208,-6.922C-11.991,-12.809 -15.951,-18.284 -21.668,-20.967C-27.385,-23.649 -34.721,-23.351 -40.091,-19.999C-41.771,-18.95 -43.226,-17.608 -44.395,-16.08C-34.28,-15.392 -23.656,-9.105 -21.495,1.037C-19.477,12.141 -25.673,21.943 -34.469,27.938C-34.098,28.987 -33.722,30.035 -33.331,31.078C-35.862,36.311 -35.351,44.635 -34.942,46.824C-34.533,49.013 -28.756,52.168 -28.756,52.168L-29.165,47.044C-28.395,49.151 -27.442,50.985 -26.181,52.236C-24.118,54.284 -18.703,54.166 -15.459,53.888C-13.942,53.758 -14.307,48.229 -14.307,48.229L-11.055,52.803C-6.579,51.524 0.975,47.113 2.235,42.957C3.495,38.8 2.548,34.21 0,30.635" style="fill:rgb(253,201,0);fill-rule:nonzero;"/>
                    </g>
                    <g transform="matrix(1,0,0,1,442.414,82.975)">
                        <path d="M0,-9.784C-2.161,-19.926 -12.784,-26.212 -22.9,-26.901C-25.468,-23.546 -26.66,-19.298 -25.847,-15.296L-20.427,-10.809C-18.703,-1.338 -16.205,8.003 -12.974,17.117C-4.177,11.122 2.018,1.32 0,-9.784" style="fill:rgb(255,110,166);fill-rule:nonzero;"/>
                    </g>
                    <g transform="matrix(0.179126,-0.983826,-0.983826,-0.179126,414.563,63.6116)">
                        <path d="M-39.795,-33.204C-60.699,-32.229 -76.83,-13.369 -75.825,8.925C-74.821,31.217 -60.7,48.669 -39.795,47.695C-18.892,46.721 -2.76,27.86 -3.765,5.567C-4.77,-16.725 -18.891,-34.178 -39.795,-33.204" style="fill:rgb(255,226,209);fill-rule:nonzero;"/>
                    </g>
                    <g transform="matrix(1,0,0,1,400.06,90.0262)">
                        <path d="M0,-31.987C0,-31.987 -37.903,-40.252 -44.573,2.363C-44.573,2.363 -43.738,4.723 -40.032,3.681C-34.099,2.013 -19.598,-2.389 -17.82,-5.86C-16.041,-9.332 -14.687,-19.434 -14.687,-19.434L-12.211,-4.311C-12.211,-4.311 11.254,2.612 18.324,-2.205C21.209,-4.524 20.015,-15.154 20.015,-15.154C20.015,-15.154 30.847,8.265 40.247,7.161C42.929,6.846 42.135,7.004 42.698,4.569C45.382,-7.037 38.466,-18.143 32.276,-24.151C23.615,-32.557 9.521,-35.398 0,-31.987" style="fill:rgb(253,201,0);fill-rule:nonzero;"/>
                    </g>
                    <g transform="matrix(0.97441,0.224779,0.224779,-0.97441,398.027,62.0072)">
                        <path d="M1.401,0.185C1.401,0.185 -8.577,7.442 -5.615,9.061C-2.653,10.68 1.401,2.005 1.401,2.005C1.401,2.005 1.031,12.907 3.645,13.517C6.259,14.126 6.064,2.208 1.401,0.185" style="fill:rgb(253,201,0);fill-rule:nonzero;"/>
                    </g>
                    <g transform="matrix(1,0,0,1,381.387,92.691)">
                        <path d="M0,-8.375C0,-8.375 -11.029,-3.943 -9.71,-0.285C-8.391,3.374 6.079,-2.288 7.959,-5.033C9.839,-7.779 5.767,-11.749 0,-8.375" style="fill:rgb(253,201,0);fill-rule:nonzero;"/>
                    </g>
                    <g transform="matrix(1,0,0,1,419.818,95.3689)">
                        <path d="M0,-8.508C0,-8.508 10.761,-3.464 9.237,0.115C7.713,3.693 -6.413,-2.772 -8.135,-5.618C-9.857,-8.465 -5.567,-12.201 0,-8.508" style="fill:rgb(253,201,0);fill-rule:nonzero;"/>
                    </g>
                    <g transform="matrix(0.170997,-0.985272,-0.985272,-0.170997,420.39,95.7617)">
                        <path d="M-9.124,-7.676C-14.222,-7.671 -18.353,-3.519 -18.354,1.595C-18.354,6.709 -14.222,10.85 -9.124,10.844C-4.026,10.838 0.106,6.687 0.107,1.573C0.106,-3.541 -4.025,-7.683 -9.124,-7.676" style="fill:white;fill-rule:nonzero;"/>
                    </g>
                    <g transform="matrix(0.170997,-0.985272,-0.985272,-0.170997,388.072,93.0452)">
                        <path d="M-9.123,-7.677C-14.221,-7.67 -18.354,-3.52 -18.353,1.594C-18.354,6.709 -14.221,10.849 -9.123,10.844C-4.026,10.837 0.107,6.687 0.107,1.573C0.107,-3.542 -4.026,-7.683 -9.123,-7.677" style="fill:white;fill-rule:nonzero;"/>
                    </g>
                    <g transform="matrix(0.00234035,-0.999997,-0.999997,-0.00234035,384.979,95.7822)">
                        <path d="M-5.981,-5.968C-10.113,-5.937 -12.951,-1.909 -11.601,2.01C-10.783,4.383 -8.484,6.014 -5.981,5.996C-1.849,5.965 0.988,1.937 -0.361,-1.982C-1.179,-4.356 -3.479,-5.987 -5.981,-5.968" style="fill:rgb(30,57,82);fill-rule:nonzero;"/>
                    </g>
                    <g transform="matrix(0.00225676,-0.999997,-0.999997,-0.00225676,416.404,98.4868)">
                        <path d="M-5.982,-5.969C-10.114,-5.938 -12.951,-1.909 -11.601,2.01C-10.784,4.384 -8.484,6.015 -5.982,5.996C-1.849,5.964 0.987,1.936 -0.363,-1.984C-1.18,-4.357 -3.48,-5.988 -5.982,-5.969" style="fill:rgb(30,57,82);fill-rule:nonzero;"/>
                    </g>
                    <g transform="matrix(0.202811,-0.979218,-0.979218,-0.202811,385.273,105.824)">
                        <path d="M-6.817,-5.64C-9.005,-5.591 -11.296,-2.223 -11.211,1.866C-11.125,5.955 -9.005,8.446 -6.817,8.398C-4.63,8.348 -2.616,5.764 -2.701,1.675C-2.787,-2.414 -4.63,-5.689 -6.817,-5.64" style="fill:rgb(255,188,176);fill-rule:nonzero;"/>
                    </g>
                    <g transform="matrix(0.0193025,0.999814,0.999814,-0.0193025,418.202,107.991)">
                        <path d="M6.888,-7.012C9.075,-6.965 11.365,-3.6 11.28,0.49C11.194,4.579 9.075,7.074 6.888,7.028C4.7,6.981 2.686,4.399 2.772,0.31C2.857,-3.78 4.7,-7.059 6.888,-7.012" style="fill:rgb(255,188,176);fill-rule:nonzero;"/>
                    </g>
                    <g transform="matrix(-0.822761,-0.568388,-0.568388,0.822761,345.141,101.048)">
                        <path d="M-11.071,-13.486C-11.071,-13.486 -4.156,-15.535 -1.162,-9.535C1.831,-3.535 -4.575,5.647 -11.071,3.347C-17.567,1.047 -16.968,-6.7 -16.968,-6.7L-11.071,-13.486Z" style="fill:rgb(255,226,209);fill-rule:nonzero;"/>
                    </g>
                    <g transform="matrix(-0.792729,-0.609574,-0.609574,0.792729,347.766,100.376)">
                        <path d="M-6.876,-7.78C-6.876,-7.78 -2.545,-8.4 -1.067,-5.018C0.41,-1.636 -3.369,3.233 -6.876,1.786C-10.382,0.34 -9.836,-3.903 -9.836,-3.903L-6.876,-7.78Z" style="fill:rgb(255,188,176);fill-rule:nonzero;"/>
                    </g>
                    <g transform="matrix(-0.886642,0.462456,0.462456,0.886642,453.781,107.806)">
                        <path d="M10.644,-13.48C10.644,-13.48 3.726,-15.531 0.732,-9.535C-2.263,-3.538 4.146,5.644 10.644,3.348C17.142,1.051 16.543,-6.695 16.543,-6.695L10.644,-13.48Z" style="fill:rgb(255,226,209);fill-rule:nonzero;"/>
                    </g>
                    <g transform="matrix(-0.88665,0.46244,0.46244,0.88665,449.337,107.462)">
                        <path d="M5.841,-7.397C5.841,-7.397 2.045,-8.522 0.402,-5.232C-1.241,-1.941 2.275,3.097 5.841,1.837C9.406,0.576 9.078,-3.673 9.078,-3.673L5.841,-7.397Z" style="fill:rgb(255,188,176);fill-rule:nonzero;"/>
                    </g>
                    <g transform="matrix(1,0,0,1,397.105,109.683)">
                        <path d="M0,6.143C-2.933,5.209 -4.89,3.737 -5.045,3.618C-6.168,2.757 -6.377,1.151 -5.513,0.032C-4.65,-1.085 -3.043,-1.294 -1.922,-0.44C-1.688,-0.265 3.194,3.317 8.25,1.03C9.539,0.446 11.061,1.014 11.647,2.301C12.233,3.586 11.663,5.102 10.372,5.686C6.505,7.437 2.806,7.036 0,6.143" style="fill:white;fill-rule:nonzero;"/>
                    </g>
                    <g opacity="0.43">
                        <g transform="matrix(1,0,0,1,408.927,113.347)">
                            <path d="M0,-0.808C-0.038,-0.996 -0.092,-1.182 -0.175,-1.364C-0.192,-1.401 -0.217,-1.432 -0.235,-1.468C-8.02,2.485 -15.881,-2.193 -17.546,-3.293C-17.663,-3.08 -17.748,-2.858 -17.799,-2.629C-16.942,-2.075 -15.012,-0.942 -12.463,-0.13C-9.044,0.958 -4.518,1.454 0,-0.808" style="fill:rgb(145,185,226);fill-rule:nonzero;"/>
                        </g>
                    </g>
                    <g transform="matrix(1,0,0,1,420.528,81.5016)">
                        <path d="M0,37.087C-8.986,34.87 -14.466,25.813 -12.241,16.858C-10.016,7.904 -0.928,2.442 8.057,4.659C17.043,6.877 22.524,15.933 20.299,24.888C18.074,33.843 8.986,39.304 0,37.087M-45.292,32.428C-54.277,30.211 -59.758,21.154 -57.533,12.2C-55.308,3.245 -46.22,-2.217 -37.234,0.001C-28.249,2.218 -22.768,11.275 -24.993,20.229C-27.218,29.184 -36.306,34.646 -45.292,32.428M8.735,1.931C-1.413,-0.574 -11.671,5.306 -14.692,15.152C-14.865,15.104 -15.034,15.051 -15.209,15.007C-17.411,14.464 -19.617,14.32 -21.755,14.521C-22.461,6.439 -28.212,-0.669 -36.556,-2.728C-47.054,-5.319 -57.672,1.062 -60.271,11.524C-62.871,21.986 -56.468,32.567 -45.97,35.157C-35.472,37.748 -24.854,31.367 -22.255,20.905C-21.959,19.714 -21.785,18.522 -21.715,17.34C-19.816,17.135 -17.849,17.252 -15.887,17.736C-15.695,17.784 -15.51,17.844 -15.321,17.897C-16.862,27.777 -10.602,37.367 -0.678,39.816C9.82,42.406 20.438,36.025 23.037,25.564C25.637,15.102 19.234,4.521 8.735,1.931" style="fill:rgb(145,185,226);fill-rule:nonzero;"/>
                    </g>
                    <g transform="matrix(1,0,0,1,419.786,80.2779)">
                        <path d="M0,37.087C-8.986,34.87 -14.466,25.813 -12.241,16.858C-10.016,7.904 -0.928,2.442 8.057,4.66C17.043,6.877 22.524,15.933 20.299,24.888C18.074,33.843 8.986,39.304 0,37.087M-45.292,32.428C-54.277,30.211 -59.758,21.154 -57.533,12.2C-55.308,3.245 -46.22,-2.217 -37.234,0.001C-28.249,2.218 -22.768,11.275 -24.993,20.229C-27.218,29.184 -36.306,34.646 -45.292,32.428M8.736,1.931C-1.413,-0.574 -11.671,5.306 -14.692,15.152C-14.865,15.104 -15.034,15.051 -15.209,15.007C-17.411,14.464 -19.617,14.32 -21.755,14.521C-22.461,6.439 -28.212,-0.669 -36.556,-2.728C-47.054,-5.319 -57.672,1.062 -60.271,11.524C-62.871,21.986 -56.468,32.567 -45.97,35.157C-35.472,37.748 -24.854,31.367 -22.255,20.905C-21.959,19.714 -21.785,18.522 -21.715,17.34C-19.816,17.135 -17.849,17.252 -15.887,17.736C-15.695,17.784 -15.51,17.844 -15.321,17.897C-16.862,27.777 -10.602,37.367 -0.678,39.816C9.82,42.406 20.438,36.025 23.037,25.564C25.637,15.102 19.233,4.521 8.736,1.931" style="fill:rgb(133,129,188);fill-rule:nonzero;"/>
                    </g>
                </g>
            </g>
            <g transform="matrix(1,0,0,1,445.376,137.086)">
                <path d="M0,1.266L-4.169,2.446C-5.215,2.743 -6.014,3.714 -6.217,4.937L-6.969,9.445C-7.114,10.317 -8.355,10.347 -8.543,9.484L-9.44,5.371C-9.75,3.944 -10.747,2.849 -11.995,2.561L-15.908,1.66C-16.772,1.461 -16.802,0.241 -15.949,-0L-12.083,-1.095C-10.852,-1.443 -9.912,-2.586 -9.673,-4.024L-8.98,-8.179C-8.835,-9.051 -7.594,-9.081 -7.406,-8.218L-6.43,-3.741C-6.168,-2.537 -5.327,-1.612 -4.273,-1.369L-0.041,-0.394C0.823,-0.195 0.853,1.024 0,1.266" style="fill:rgb(30,57,82);fill-rule:nonzero;"/>
            </g>
            <g transform="matrix(1,0,0,1,366.448,125.537)">
                <path d="M0,1.051L-3.676,2.049C-4.599,2.3 -5.304,3.118 -5.485,4.149L-6.151,7.947C-6.28,8.681 -7.374,8.708 -7.539,7.981L-8.326,4.518C-8.598,3.317 -9.475,2.395 -10.575,2.154L-14.024,1.398C-14.785,1.231 -14.811,0.204 -14.059,0L-10.65,-0.926C-9.564,-1.221 -8.734,-2.183 -8.522,-3.396L-7.908,-6.896C-7.779,-7.63 -6.684,-7.657 -6.519,-6.93L-5.664,-3.16C-5.433,-2.146 -4.693,-1.368 -3.764,-1.164L-0.035,-0.347C0.727,-0.18 0.752,0.847 0,1.051" style="fill:rgb(30,57,82);fill-rule:nonzero;"/>
            </g>
            <g transform="matrix(1,0,0,1,462.171,83.1065)">
                <path d="M0,1.761L-1.471,2.176C-2.141,2.365 -2.662,3.021 -2.806,3.858L-3.036,5.188C-3.203,6.156 -4.487,6.163 -4.665,5.197L-4.864,4.112C-5.045,3.129 -5.666,2.364 -6.458,2.149L-7.737,1.803C-8.604,1.568 -8.612,0.243 -7.747,-0.001L-6.47,-0.361C-5.682,-0.584 -5.069,-1.355 -4.899,-2.339L-4.711,-3.428C-4.544,-4.395 -3.26,-4.402 -3.083,-3.437L-2.837,-2.101C-2.684,-1.271 -2.16,-0.625 -1.491,-0.444L-0.01,-0.043C0.857,0.192 0.864,1.517 0,1.761" style="fill:rgb(30,57,82);fill-rule:nonzero;"/>
            </g>
            <g transform="matrix(1,0,0,1,417.967,47.1844)">
                <path d="M0,1.757L-1.475,2.171C-2.147,2.36 -2.67,3.014 -2.815,3.849L-3.045,5.176C-3.213,6.141 -4.501,6.148 -4.679,5.185L-4.879,4.103C-5.06,3.122 -5.683,2.358 -6.477,2.144L-7.761,1.799C-8.63,1.565 -8.638,0.243 -7.77,-0L-6.489,-0.36C-5.699,-0.582 -5.084,-1.351 -4.914,-2.333L-4.725,-3.419C-4.557,-4.384 -3.27,-4.391 -3.092,-3.428L-2.845,-2.095C-2.692,-1.267 -2.166,-0.623 -1.496,-0.442L-0.01,-0.042C0.86,0.192 0.867,1.514 0,1.757" style="fill:rgb(30,57,82);fill-rule:nonzero;"/>
            </g>
            <g transform="matrix(1,0,0,1,372.61,136.838)">
                <path d="M0,1.762L-1.471,2.177C-2.141,2.366 -2.662,3.022 -2.806,3.859L-3.036,5.189C-3.203,6.157 -4.487,6.163 -4.664,5.198L-4.864,4.113C-5.045,3.13 -5.666,2.365 -6.458,2.15L-7.737,1.804C-8.604,1.569 -8.612,0.244 -7.747,-0L-6.47,-0.36C-5.682,-0.583 -5.069,-1.354 -4.899,-2.338L-4.711,-3.427C-4.544,-4.394 -3.26,-4.401 -3.083,-3.436L-2.837,-2.1C-2.684,-1.27 -2.16,-0.624 -1.491,-0.443L-0.01,-0.042C0.857,0.193 0.865,1.518 0,1.762" style="fill:rgb(30,57,82);fill-rule:nonzero;"/>
            </g>
        </g>
    </g>
</svg>
