<?xml version="1.0" encoding="UTF-8" standalone="no"?>
<!DOCTYPE svg PUBLIC "-//W3C//DTD SVG 1.1//EN" "http://www.w3.org/Graphics/SVG/1.1/DTD/svg11.dtd">
<svg width="100%" height="100%" viewBox="0 0 321 320" version="1.1" xmlns="http://www.w3.org/2000/svg" xmlns:xlink="http://www.w3.org/1999/xlink" xml:space="preserve" xmlns:serif="http://www.serif.com/" style="fill-rule:evenodd;clip-rule:evenodd;stroke-linejoin:round;stroke-miterlimit:2;">
    <g transform="matrix(1,0,0,1,-496,-460)">
        <g transform="matrix(2.32457,0,0,2.32457,74.4133,39.8471)">
            <g transform="matrix(0,-1,-1,0,250.405,181.17)">
                <path d="M-68.83,-68.83C-106.844,-68.83 -137.66,-38.014 -137.66,0C-137.66,38.014 -106.844,68.83 -68.83,68.83C-30.816,68.83 0,38.014 0,0C0,-38.014 -30.816,-68.83 -68.83,-68.83" style="fill:rgb(201,181,217);fill-rule:nonzero;"/>
            </g>
            <g transform="matrix(0,-1,-1,0,250.405,188.14)">
                <path d="M-61.86,-61.86C-96.024,-61.86 -123.72,-34.164 -123.72,0C-123.72,34.164 -96.024,61.86 -61.86,61.86C-27.696,61.86 0,34.164 0,0C0,-34.164 -27.696,-61.86 -61.86,-61.86" style="fill:rgb(255,104,104);fill-rule:nonzero;"/>
            </g>
            <g>
                <clipPath id="_clip1">
                    <path d="M188.546,248.447C188.546,282.611 216.241,310.307 250.405,310.307C284.569,310.307 312.265,282.611 312.265,248.447C312.265,214.283 284.569,186.588 250.405,186.588C216.241,186.588 188.546,214.283 188.546,248.447Z" clip-rule="nonzero"/>
                </clipPath>
                <g clip-path="url(#_clip1)">
                    <g transform="matrix(0,-1,-1,0,251.607,266.828)">
                        <path d="M-48.306,-48.306C-64.506,-48.306 -77.639,-26.679 -77.639,-0.001C-77.639,26.679 -64.506,48.306 -48.306,48.306C-32.106,48.306 -18.973,26.679 -18.973,-0.001C-18.973,-26.679 -32.106,-48.306 -48.306,-48.306" style="fill:rgb(253,201,0);fill-rule:nonzero;"/>
                    </g>
                    <g transform="matrix(0.0545366,-0.998512,-0.998512,-0.0545366,254.933,203.986)">
                        <path d="M-43.667,-41.348C-64.348,-40.594 -80.309,-20.434 -79.314,3.683C-78.32,27.799 -64.348,46.87 -43.667,46.117C-22.985,45.363 -7.025,25.203 -8.019,1.086C-9.013,-23.03 -22.985,-42.101 -43.667,-41.348" style="fill:rgb(254,226,219);fill-rule:nonzero;"/>
                    </g>
                    <g transform="matrix(0.256498,0.966545,0.966545,-0.256498,254.737,273.373)">
                        <path d="M1.531,-18.936L13.928,-18.936C13.928,-18.936 21.236,-10.748 19.058,0.395L12.285,5.262L1.531,-18.936Z" style="fill:rgb(253,207,173);fill-rule:nonzero;"/>
                    </g>
                    <g transform="matrix(0.355861,-0.934539,-0.934539,-0.355861,255.588,276.069)">
                        <path d="M-8.708,-9.689L-4.687,-9.689L-11.225,15.243L-18.903,9.903C-17.153,2.443 -13.537,-4.073 -8.708,-9.689" style="fill:rgb(237,162,134);fill-rule:nonzero;"/>
                    </g>
                    <g transform="matrix(0.0493776,-0.99878,-0.99878,-0.0493776,254.663,208.07)">
                        <path d="M-40.566,-38.61C-62.171,-37.71 -78.845,-18.834 -77.806,3.555C-76.767,25.943 -62.171,43.52 -40.566,42.622C-18.959,41.722 -2.286,22.845 -3.325,0.457C-4.364,-21.932 -18.96,-39.509 -40.566,-38.61" style="fill:rgb(254,206,176);fill-rule:nonzero;"/>
                    </g>
                    <g transform="matrix(1,0,0,1,219.966,235.059)">
                        <path d="M0,-23.012C0,-23.012 -4.437,4.913 -9.333,12.299C-9.723,12.888 -11.628,11.284 -12.118,11.352C-13.742,11.578 -15.147,10.2 -15.074,8.519C-13.373,-31.088 19.046,-31.38 24.018,-31.191C24.453,-31.174 24.875,-31.276 25.268,-31.468C34.317,-35.9 58.557,-35.678 65.667,-25.928C75.321,-12.689 74.009,-4.865 72.883,7.393C72.883,7.393 51.904,1.42 39.518,-23.702" style="fill:rgb(254,226,219);fill-rule:nonzero;"/>
                    </g>
                    <g transform="matrix(0.28527,0.958447,0.958447,-0.28527,208.873,186.774)">
                        <path d="M58.569,-15.596C58.569,-15.596 55.871,4.382 42.733,17.716C42.733,17.716 57.109,32.283 58.569,54.681C60.029,77.079 16.294,63.018 17.824,32.741C18.891,11.586 14.022,-12.518 54.841,-20.319" style="fill:rgb(254,226,219);fill-rule:nonzero;"/>
                    </g>
                    <g transform="matrix(1,0,0,1,230.304,243.018)">
                        <path d="M0,-8.939C0,-8.939 -10.385,-2.896 -8.585,0.674C-6.786,4.243 6.86,-3.529 8.365,-6.598C9.871,-9.667 5.289,-13.182 0,-8.939" style="fill:rgb(254,226,219);fill-rule:nonzero;"/>
                    </g>
                    <g transform="matrix(1,0,0,1,266.527,238.945)">
                        <path d="M0,-8.426C0,-8.426 11.38,-4.723 10.34,-0.848C9.301,3.026 -5.618,-1.675 -7.711,-4.357C-9.803,-7.039 -6.031,-11.452 0,-8.426" style="fill:rgb(254,226,219);fill-rule:nonzero;"/>
                    </g>
                    <g transform="matrix(0.04087,-0.999164,-0.999164,-0.04087,236.176,241.616)">
                        <path d="M-9.29,-8.918C-14.559,-8.929 -18.83,-4.774 -18.83,0.361C-18.83,5.495 -14.559,9.667 -9.29,9.678C-4.021,9.689 0.25,5.535 0.25,0.4C0.25,-4.735 -4.021,-8.907 -9.29,-8.918" style="fill:white;fill-rule:nonzero;"/>
                    </g>
                    <g transform="matrix(-0.471928,-0.881637,-0.881637,0.471928,230.341,247.501)">
                        <path d="M-5.377,-8.979C-11.702,-8.481 -13.775,-0.897 -8.502,2.452C-7.585,3.035 -6.477,3.307 -5.377,3.22C0.947,2.723 3.021,-4.86 -2.253,-8.21C-3.169,-8.793 -4.277,-9.065 -5.377,-8.979" style="fill:rgb(30,57,82);fill-rule:nonzero;"/>
                    </g>
                    <g transform="matrix(0.0742062,-0.997243,-0.997243,-0.0742062,235.339,255.06)">
                        <path d="M-6.915,-6.631C-9.176,-6.594 -11.544,-3.223 -11.455,0.884C-11.368,4.991 -9.176,7.503 -6.915,7.465C-4.654,7.428 -2.574,4.843 -2.661,0.737C-2.75,-3.37 -4.654,-6.668 -6.915,-6.631" style="fill:rgb(237,162,134);fill-rule:nonzero;"/>
                    </g>
                    <g transform="matrix(0.233718,0.972304,0.972304,-0.233718,261.889,240.397)">
                        <path d="M9.052,-7.134C14.314,-7.195 18.58,-3.075 18.58,2.067C18.58,7.209 14.314,11.426 9.052,11.486C3.79,11.547 -0.475,7.427 -0.475,2.285C-0.475,-2.857 3.791,-7.074 9.052,-7.134" style="fill:white;fill-rule:nonzero;"/>
                    </g>
                    <g transform="matrix(-0.342977,0.939344,0.939344,0.342977,270.04,244.039)">
                        <path d="M5.713,-8.17C12.055,-7.705 14.135,-0.15 8.847,3.215C7.927,3.801 6.818,4.077 5.713,3.997C-0.627,3.531 -2.707,-4.023 2.58,-7.388C3.5,-7.974 4.61,-8.251 5.713,-8.17" style="fill:rgb(30,57,82);fill-rule:nonzero;"/>
                    </g>
                    <g transform="matrix(0.214942,0.976627,0.976627,-0.214942,265.7,253.124)">
                        <path d="M6.837,-5.582C9.095,-5.56 11.46,-2.202 11.372,1.909C11.284,6.021 9.095,8.551 6.837,8.529C4.578,8.507 2.499,5.934 2.587,1.822C2.675,-2.29 4.578,-5.604 6.837,-5.582" style="fill:rgb(237,162,134);fill-rule:nonzero;"/>
                    </g>
                    <g transform="matrix(-0.896052,-0.443949,-0.443949,0.896052,196.076,255.986)">
                        <path d="M-10.668,-13.792C-10.668,-13.792 -3.682,-16.066 -0.658,-9.975C2.366,-3.886 -4.105,5.705 -10.668,3.501C-17.23,1.296 -16.626,-6.677 -16.626,-6.677L-10.668,-13.792Z" style="fill:rgb(254,206,176);fill-rule:nonzero;"/>
                    </g>
                    <g transform="matrix(-0.872654,-0.48834,-0.48834,0.872654,198.349,254.853)">
                        <path d="M-6.69,-8.031C-6.69,-8.031 -2.308,-8.781 -0.814,-5.35C0.68,-1.918 -3.142,3.176 -6.69,1.783C-10.237,0.39 -9.684,-3.977 -9.684,-3.977L-6.69,-8.031Z" style="fill:rgb(237,162,134);fill-rule:nonzero;"/>
                    </g>
                    <g transform="matrix(-0.825459,0.564461,0.564461,0.825459,305.216,247.669)">
                        <path d="M11.216,-13.77C11.216,-13.77 4.208,-16.062 1.173,-10.002C-1.86,-3.942 4.632,5.641 11.216,3.467C17.799,1.293 17.192,-6.657 17.192,-6.657L11.216,-13.77Z" style="fill:rgb(254,206,176);fill-rule:nonzero;"/>
                    </g>
                    <g transform="matrix(-0.825471,0.564445,0.564445,0.825471,300.521,247.938)">
                        <path d="M6.154,-7.556C6.154,-7.556 2.308,-8.813 0.643,-5.488C-1.021,-2.163 2.541,3.095 6.154,1.903C9.766,0.71 9.433,-3.653 9.433,-3.653L6.154,-7.556Z" style="fill:rgb(237,162,134);fill-rule:nonzero;"/>
                    </g>
                    <g transform="matrix(1,0,0,1,249.361,254.986)">
                        <path d="M0,7.818C-2.837,7.35 -4.827,6.086 -4.984,5.984C-6.128,5.24 -6.505,3.483 -5.826,2.058C-5.149,0.636 -3.676,0.085 -2.536,0.821C-2.298,0.971 2.655,4.022 7.105,0.461C8.239,-0.447 9.72,-0.111 10.412,1.215C11.104,2.54 10.744,4.351 9.608,5.26C6.205,7.984 2.714,8.265 0,7.818" style="fill:white;fill-rule:nonzero;"/>
                    </g>
                    <g opacity="0.43">
                        <g transform="matrix(1,0,0,1,259.999,261.369)">
                            <path d="M0,-4.579C-0.057,-4.782 -0.128,-4.98 -0.226,-5.168C-0.246,-5.206 -0.273,-5.235 -0.294,-5.272C-7.096,0.693 -14.948,-2.998 -16.623,-3.903C-16.707,-3.641 -16.761,-3.375 -16.783,-3.108C-15.922,-2.657 -13.996,-1.768 -11.531,-1.361C-8.223,-0.816 -3.952,-1.153 0,-4.579" style="fill:rgb(113,189,254);fill-rule:nonzero;"/>
                        </g>
                    </g>
                    <g transform="matrix(1,0,0,1,295.702,280.592)">
                        <path d="M0,1.237L-4.071,2.39C-5.093,2.679 -5.873,3.628 -6.072,4.822L-6.806,9.225C-6.948,10.076 -8.16,10.106 -8.344,9.263L-9.219,5.246C-9.523,3.853 -10.496,2.783 -11.715,2.502L-15.537,1.622C-16.38,1.427 -16.41,0.237 -15.577,0.001L-11.801,-1.069C-10.599,-1.409 -9.681,-2.525 -9.447,-3.93L-8.771,-7.988C-8.629,-8.839 -7.416,-8.869 -7.233,-8.026L-6.28,-3.653C-6.024,-2.477 -5.202,-1.574 -4.173,-1.336L-0.04,-0.384C0.804,-0.189 0.833,1.001 0,1.237" style="fill:rgb(30,57,82);fill-rule:nonzero;"/>
                    </g>
                    <g transform="matrix(1,0,0,1,216.488,278.355)">
                        <path d="M0,0.916L-3.017,1.77C-3.774,1.985 -4.353,2.688 -4.5,3.573L-5.044,6.836C-5.149,7.466 -6.047,7.489 -6.183,6.864L-6.832,3.887C-7.057,2.855 -7.778,2.062 -8.681,1.854L-11.514,1.201C-12.139,1.057 -12.16,0.175 -11.543,0L-8.745,-0.793C-7.854,-1.045 -7.174,-1.872 -7.001,-2.913L-6.5,-5.92C-6.395,-6.551 -5.496,-6.573 -5.36,-5.948L-4.654,-2.708C-4.464,-1.836 -3.855,-1.167 -3.093,-0.991L-0.03,-0.285C0.595,-0.141 0.617,0.741 0,0.916" style="fill:rgb(30,57,82);fill-rule:nonzero;"/>
                    </g>
                    <g transform="matrix(1,0,0,1,304.461,266.166)">
                        <path d="M0,1.761L-1.471,2.176C-2.141,2.366 -2.662,3.021 -2.806,3.858L-3.036,5.188C-3.203,6.156 -4.487,6.163 -4.665,5.197L-4.864,4.112C-5.045,3.129 -5.666,2.364 -6.458,2.149L-7.738,1.803C-8.605,1.568 -8.612,0.243 -7.747,-0.001L-6.47,-0.361C-5.682,-0.584 -5.069,-1.355 -4.899,-2.339L-4.711,-3.428C-4.544,-4.395 -3.26,-4.402 -3.083,-3.437L-2.837,-2.101C-2.684,-1.271 -2.16,-0.625 -1.491,-0.444L-0.01,-0.043C0.857,0.192 0.865,1.517 0,1.761" style="fill:rgb(30,57,82);fill-rule:nonzero;"/>
                    </g>
                    <g transform="matrix(1,0,0,1,200.001,234.228)">
                        <path d="M0,1.761L-1.471,2.176C-2.141,2.366 -2.662,3.021 -2.806,3.858L-3.036,5.188C-3.203,6.156 -4.487,6.163 -4.664,5.197L-4.864,4.112C-5.045,3.129 -5.666,2.364 -6.458,2.149L-7.738,1.803C-8.604,1.568 -8.612,0.243 -7.747,-0.001L-6.47,-0.361C-5.682,-0.584 -5.069,-1.355 -4.899,-2.339L-4.711,-3.428C-4.544,-4.395 -3.26,-4.402 -3.083,-3.437L-2.837,-2.101C-2.684,-1.271 -2.16,-0.625 -1.491,-0.444L-0.01,-0.043C0.857,0.192 0.865,1.517 0,1.761" style="fill:rgb(30,57,82);fill-rule:nonzero;"/>
                    </g>
                    <g transform="matrix(1,0,0,1,305.441,230.564)">
                        <path d="M0,2.184L-1.824,2.699C-2.654,2.934 -3.3,3.746 -3.479,4.783L-3.764,6.433C-3.971,7.632 -5.563,7.641 -5.783,6.444L-6.03,5.099C-6.254,3.88 -7.025,2.931 -8.006,2.665L-9.593,2.236C-10.668,1.945 -10.677,0.302 -9.605,-0L-8.021,-0.447C-7.044,-0.723 -6.285,-1.679 -6.074,-2.9L-5.841,-4.249C-5.634,-5.448 -4.042,-5.457 -3.822,-4.26L-3.517,-2.604C-3.328,-1.575 -2.677,-0.774 -1.849,-0.549L-0.012,-0.052C1.063,0.239 1.072,1.881 0,2.184" style="fill:rgb(30,57,82);fill-rule:nonzero;"/>
                    </g>
                </g>
            </g>
        </g>
    </g>
</svg>
