<?xml version="1.0" encoding="UTF-8" standalone="no"?>
<!DOCTYPE svg PUBLIC "-//W3C//DTD SVG 1.1//EN" "http://www.w3.org/Graphics/SVG/1.1/DTD/svg11.dtd">
<svg width="100%" height="100%" viewBox="0 0 320 320" version="1.1" xmlns="http://www.w3.org/2000/svg" xmlns:xlink="http://www.w3.org/1999/xlink" xml:space="preserve" xmlns:serif="http://www.serif.com/" style="fill-rule:evenodd;clip-rule:evenodd;stroke-linecap:round;stroke-miterlimit:10;">
    <g transform="matrix(1,0,0,1,0,-994)">
        <g transform="matrix(2.32457,0,0,2.32457,-61.2094,232.739)">
            <g transform="matrix(0,-1,-1,0,95.1615,327.103)">
                <path d="M-68.83,-68.83C-106.844,-68.83 -137.66,-38.014 -137.66,0C-137.66,38.014 -106.844,68.83 -68.83,68.83C-30.816,68.83 0,38.014 0,0C0,-38.014 -30.816,-68.83 -68.83,-68.83" style="fill:rgb(255,110,166);fill-rule:nonzero;"/>
            </g>
            <g>
                <clipPath id="_clip1">
                    <path d="M33.302,395.933C33.302,430.097 60.997,457.793 95.161,457.793C129.326,457.793 157.021,430.097 157.021,395.933C157.021,361.768 129.326,334.072 95.161,334.072C60.997,334.072 33.302,361.768 33.302,395.933Z" clip-rule="nonzero"/>
                </clipPath>
                <g clip-path="url(#_clip1)">
                    <g transform="matrix(0,-1,-1,0,95.1614,334.073)">
                        <path d="M-61.86,-61.86C-96.024,-61.86 -123.72,-34.164 -123.72,0C-123.72,34.164 -96.024,61.86 -61.86,61.86C-27.696,61.86 0,34.164 0,0C0,-34.164 -27.696,-61.86 -61.86,-61.86" style="fill:rgb(201,181,217);fill-rule:nonzero;"/>
                    </g>
                    <g transform="matrix(0.0304913,0.999535,0.999535,-0.0304913,94.9152,412.705)">
                        <path d="M47.811,-46.375C63.852,-46.375 76.857,-24.96 76.857,1.458C76.857,27.876 63.853,49.291 47.811,49.291C31.769,49.291 18.765,27.876 18.764,1.458C18.764,-24.96 31.769,-46.375 47.811,-46.375" style="fill:rgb(62,203,192);fill-rule:nonzero;"/>
                    </g>
                    <g transform="matrix(-0.226941,0.973908,0.973908,0.226941,103.95,448.011)">
                        <path d="M-24.157,2.011L-11.88,2.011C-11.88,2.011 -4.644,-6.096 -6.8,-17.131L-13.506,-21.95L-24.157,2.011Z" style="fill:rgb(141,97,106);fill-rule:nonzero;"/>
                    </g>
                    <g transform="matrix(-0.384045,-0.923315,-0.923315,0.384045,104.428,440.987)">
                        <path d="M13.495,13.082L17.476,13.082L11.007,-11.607L3.402,-6.32C5.135,1.067 8.714,7.519 13.495,13.082" style="fill:rgb(141,97,106);fill-rule:nonzero;"/>
                    </g>
                    <g transform="matrix(0.268504,0.963279,0.963279,-0.268504,75.6288,358.443)">
                        <path d="M41.263,-31.334C61.007,-30.54 76.244,-10.749 75.295,12.87C74.345,36.489 61.007,55.131 41.263,54.337C21.518,53.544 6.281,33.753 7.231,10.134C8.18,-13.485 21.519,-32.127 41.263,-31.334" style="fill:rgb(30,57,82);fill-rule:nonzero;"/>
                    </g>
                    <g transform="matrix(1,0,0,1,76.1968,428.705)">
                        <path d="M0,-10.684C0,-10.684 7.012,-0.163 -4.828,2.964C-4.828,2.964 -7.946,10.684 -16.989,5.559C-16.989,5.559 -25.731,8.272 -27.594,-1.107C-27.594,-1.107 -35.817,-7.333 -28.893,-12.01C-28.893,-12.01 -28.833,-20.2 -17.306,-21.368" style="fill:rgb(30,57,82);fill-rule:nonzero;"/>
                    </g>
                    <g transform="matrix(0,-1,-1,0,75.7436,394.271)">
                        <path d="M-16.677,-16.677C-24.653,-16.677 -31.119,-9.211 -31.119,0C-31.119,9.21 -24.653,16.677 -16.677,16.677C-8.701,16.677 -2.235,9.21 -2.235,0C-2.235,-9.211 -8.701,-16.677 -16.677,-16.677" style="fill:rgb(253,201,0);fill-rule:nonzero;"/>
                    </g>
                    <g transform="matrix(1,0,0,1,126.093,425.411)">
                        <path d="M0,-25.505C0,-25.505 8.932,-34.453 14.332,-23.463C14.332,-23.463 25.656,-23.401 22.118,-11.48C22.118,-11.48 24.153,0.137 14.83,-0.34C14.83,-0.34 10.347,8.948 4.397,3.082C4.397,3.082 -3.644,4.639 -7.062,-6.432" style="fill:rgb(30,57,82);fill-rule:nonzero;"/>
                    </g>
                    <g transform="matrix(-0.809863,-0.58662,-0.58662,0.809863,106.797,411.489)">
                        <path d="M-9.783,-30.183C-17.76,-30.183 -24.225,-22.716 -24.225,-13.506C-24.226,-4.296 -17.76,3.171 -9.783,3.171C-1.807,3.171 4.659,-4.296 4.659,-13.506C4.659,-22.716 -1.806,-30.183 -9.783,-30.183" style="fill:rgb(253,201,0);fill-rule:nonzero;"/>
                    </g>
                    <g transform="matrix(0.263666,0.964614,0.964614,-0.263666,77.2991,361.913)">
                        <path d="M38.375,-29.294C59.001,-28.361 74.918,-9.83 73.927,12.097C72.936,34.023 59.002,51.205 38.375,50.273C17.75,49.34 1.832,30.808 2.824,8.882C3.815,-13.045 17.75,-30.226 38.375,-29.294" style="fill:rgb(151,117,115);fill-rule:nonzero;"/>
                    </g>
                    <g transform="matrix(1,0,0,1,114.015,388.625)">
                        <path d="M0,-8.012C0,-8.012 11.182,-4.588 10.2,-0.879C9.218,2.83 -5.439,-1.513 -7.514,-4.053C-9.59,-6.593 -5.936,-10.842 0,-8.012" style="fill:rgb(30,57,82);fill-rule:nonzero;"/>
                    </g>
                    <g transform="matrix(1,0,0,1,78.2636,394.68)">
                        <path d="M0,-8.547C0,-8.547 -10.115,-2.678 -8.318,0.712C-6.522,4.101 6.77,-3.449 8.216,-6.394C9.662,-9.338 5.141,-12.648 0,-8.547" style="fill:rgb(30,57,82);fill-rule:nonzero;"/>
                    </g>
                    <g transform="matrix(0.255663,0.966766,0.966766,-0.255663,108.103,389.442)">
                        <path d="M8.805,-6.779C13.835,-6.779 17.912,-2.701 17.913,2.328C17.913,7.358 13.835,11.436 8.805,11.436C3.775,11.436 -0.302,7.359 -0.302,2.329C-0.302,-2.701 3.775,-6.779 8.805,-6.779" style="fill:white;fill-rule:nonzero;"/>
                    </g>
                    <g transform="matrix(-0.259113,0.965847,0.965847,0.259113,115.579,392.216)">
                        <path d="M5.737,-7.481C11.809,-7.128 13.8,0.217 8.738,3.588C7.856,4.175 6.794,4.464 5.737,4.402C-0.333,4.048 -2.324,-3.296 2.737,-6.668C3.618,-7.254 4.681,-7.543 5.737,-7.481" style="fill:rgb(30,57,82);fill-rule:nonzero;"/>
                    </g>
                    <g transform="matrix(0.286962,0.957942,0.957942,-0.286962,112.08,401.684)">
                        <path d="M6.593,-4.937C8.752,-4.892 11.012,-1.582 10.928,2.439C10.844,6.461 8.752,8.915 6.593,8.869C4.435,8.824 2.448,6.285 2.531,2.263C2.616,-1.758 4.434,-4.983 6.593,-4.937" style="fill:rgb(141,97,106);fill-rule:nonzero;"/>
                    </g>
                    <g transform="matrix(-0.039911,-0.999203,-0.999203,0.039911,82.0656,392.762)">
                        <path d="M-9.1,-9.47C-14.13,-9.47 -18.208,-5.392 -18.208,-0.362C-18.207,4.667 -14.129,8.745 -9.1,8.745C-4.07,8.744 0.008,4.666 0.007,-0.362C0.007,-5.393 -4.071,-9.471 -9.1,-9.47" style="fill:white;fill-rule:nonzero;"/>
                    </g>
                    <g transform="matrix(-0.531692,-0.846938,-0.846938,0.531692,77.4403,399.258)">
                        <path d="M-5.032,-9.1C-11.104,-8.746 -13.094,-1.402 -8.031,1.97C-7.151,2.556 -6.088,2.844 -5.032,2.782C1.04,2.428 3.03,-4.916 -2.031,-8.287C-2.913,-8.873 -3.975,-9.162 -5.032,-9.1" style="fill:rgb(30,57,82);fill-rule:nonzero;"/>
                    </g>
                    <g transform="matrix(-0.00738789,-0.999973,-0.999973,0.00738789,82.4058,405.665)">
                        <path d="M-6.764,-7.095C-8.922,-7.05 -11.183,-3.74 -11.098,0.283C-11.013,4.304 -8.922,6.757 -6.764,6.712C-4.605,6.667 -2.617,4.128 -2.702,0.105C-2.787,-3.916 -4.605,-7.14 -6.764,-7.095" style="fill:rgb(141,97,106);fill-rule:nonzero;"/>
                    </g>
                    <g transform="matrix(-0.771864,0.635788,0.635788,0.771864,152.437,390.658)">
                        <path d="M11.857,-13.491C11.857,-13.491 5.05,-15.533 2.102,-9.628C-0.845,-3.724 5.462,5.35 11.857,3.103C18.253,0.856 17.664,-6.783 17.664,-6.783L11.857,-13.491Z" style="fill:rgb(151,117,115);fill-rule:nonzero;"/>
                    </g>
                    <g transform="matrix(-0.738465,0.674292,0.674292,0.738465,148.991,390.511)">
                        <path d="M6.916,-7.59C6.916,-7.59 2.651,-8.217 1.196,-4.888C-0.258,-1.559 3.464,3.252 6.916,1.837C10.369,0.423 9.831,-3.76 9.831,-3.76L6.916,-7.59Z" style="fill:rgb(141,97,106);fill-rule:nonzero;"/>
                    </g>
                    <g transform="matrix(-0.92368,-0.383164,-0.383164,0.92368,46.0925,407.034)">
                        <path d="M-10.051,-13.209C-10.051,-13.209 -3.243,-15.251 -0.296,-9.347C2.651,-3.442 -3.656,5.631 -10.051,3.384C-16.446,1.138 -15.857,-6.502 -15.857,-6.502L-10.051,-13.209Z" style="fill:rgb(151,117,115);fill-rule:nonzero;"/>
                    </g>
                    <g transform="matrix(-0.923667,-0.383196,-0.383196,0.923667,50.2327,406.27)">
                        <path d="M-5.514,-7.248C-5.514,-7.248 -1.779,-8.369 -0.162,-5.129C1.455,-1.889 -2.006,3.089 -5.514,1.857C-9.024,0.624 -8.7,-3.569 -8.7,-3.569L-5.514,-7.248Z" style="fill:rgb(141,97,106);fill-rule:nonzero;"/>
                    </g>
                    <g transform="matrix(0.985017,-0.17246,-0.17246,-0.985017,94.1138,406.498)">
                        <path d="M0.178,0.714C0.178,0.714 4.396,-2.874 8.702,0.714" style="fill:none;fill-rule:nonzero;stroke:rgb(30,57,82);stroke-width:0.69px;"/>
                    </g>
                    <g transform="matrix(0.988254,-0.152817,-0.152817,-0.988254,70.062,359.253)">
                        <path d="M-1.233,-0.067C-1.233,-0.067 -8.425,4.705 -6.933,8.44C-5.441,12.174 -1.233,3.591 -1.233,3.591C-1.233,3.591 -3.515,12.791 0.932,13.934C5.379,15.076 4.427,-0.943 4.427,-0.943" style="fill:rgb(30,57,82);fill-rule:nonzero;"/>
                    </g>
                    <g transform="matrix(1,0,0,1,74.1235,363.408)">
                        <path d="M0,4.851C0,4.851 11.031,20.101 21.786,9.055C21.786,9.055 31.379,19.229 40.681,9.927C40.681,9.927 48.592,23.852 61.787,22.267L64.927,20.193C64.927,20.193 71.785,8.764 56.96,0.625C56.96,0.625 59.653,-17.621 26.147,-15.363C26.147,-15.363 14.324,-30.426 -5.829,-7.514C-5.829,-7.514 -31.185,1.436 -22.98,18.357C-22.98,18.357 -35.605,32.108 -24.176,35.107L-13.686,35.277C-13.686,35.277 -6.411,31.148 -7.864,20.392C-7.864,20.392 -2.019,20.995 0,4.851" style="fill:rgb(30,57,82);fill-rule:nonzero;"/>
                    </g>
                </g>
            </g>
            <g transform="matrix(1,0,0,1,145.128,368.03)">
                <path d="M0,1.237L-4.071,2.39C-5.093,2.679 -5.873,3.628 -6.072,4.822L-6.806,9.225C-6.948,10.076 -8.16,10.106 -8.344,9.263L-9.219,5.246C-9.523,3.853 -10.496,2.783 -11.715,2.502L-15.537,1.621C-16.38,1.427 -16.41,0.236 -15.577,0.001L-11.801,-1.069C-10.599,-1.409 -9.681,-2.525 -9.447,-3.93L-8.771,-7.988C-8.629,-8.839 -7.417,-8.869 -7.233,-8.026L-6.28,-3.653C-6.024,-2.477 -5.202,-1.574 -4.173,-1.336L-0.04,-0.384C0.803,-0.19 0.833,1.001 0,1.237" style="fill:rgb(243,205,5);fill-rule:nonzero;"/>
            </g>
            <g transform="matrix(1,0,0,1,45.8778,382.066)">
                <path d="M0,1.762L-1.471,2.177C-2.141,2.366 -2.662,3.022 -2.806,3.859L-3.036,5.189C-3.203,6.157 -4.487,6.163 -4.665,5.198L-4.864,4.113C-5.045,3.13 -5.666,2.365 -6.458,2.15L-7.737,1.804C-8.604,1.569 -8.612,0.244 -7.747,-0L-6.47,-0.36C-5.682,-0.583 -5.069,-1.354 -4.899,-2.338L-4.711,-3.427C-4.544,-4.394 -3.26,-4.401 -3.083,-3.436L-2.837,-2.1C-2.684,-1.27 -2.16,-0.624 -1.491,-0.443L-0.01,-0.042C0.857,0.193 0.864,1.518 0,1.762" style="fill:rgb(243,205,5);fill-rule:nonzero;"/>
            </g>
            <g transform="matrix(1,0,0,1,128.143,353.259)">
                <path d="M0,2.184L-1.824,2.699C-2.654,2.933 -3.3,3.746 -3.479,4.783L-3.764,6.433C-3.971,7.632 -5.563,7.641 -5.783,6.444L-6.03,5.099C-6.255,3.88 -7.025,2.931 -8.006,2.665L-9.593,2.236C-10.668,1.945 -10.676,0.302 -9.605,-0L-8.021,-0.447C-7.044,-0.723 -6.285,-1.679 -6.074,-2.899L-5.841,-4.249C-5.633,-5.448 -4.042,-5.457 -3.822,-4.26L-3.517,-2.604C-3.328,-1.575 -2.677,-0.774 -1.849,-0.549L-0.012,-0.052C1.063,0.239 1.072,1.881 0,2.184" style="fill:rgb(243,205,5);fill-rule:nonzero;"/>
            </g>
        </g>
    </g>
</svg>
