<?xml version="1.0" encoding="UTF-8" standalone="no"?>
<!DOCTYPE svg PUBLIC "-//W3C//DTD SVG 1.1//EN" "http://www.w3.org/Graphics/SVG/1.1/DTD/svg11.dtd">
<svg width="100%" height="100%" viewBox="0 0 320 320" version="1.1" xmlns="http://www.w3.org/2000/svg" xmlns:xlink="http://www.w3.org/1999/xlink" xml:space="preserve" xmlns:serif="http://www.serif.com/" style="fill-rule:evenodd;clip-rule:evenodd;stroke-linejoin:round;stroke-miterlimit:2;">
    <g transform="matrix(2.32457,0,0,2.32457,-61.2094,-74.1809)">
        <g transform="matrix(0,-1,-1,0,95.1615,31.9117)">
            <path d="M-68.83,-68.83C-106.844,-68.83 -137.66,-38.014 -137.66,0C-137.66,38.014 -106.844,68.83 -68.83,68.83C-30.816,68.83 0,38.014 0,0C0,-38.014 -30.816,-68.83 -68.83,-68.83" style="fill:rgb(255,104,104);fill-rule:nonzero;"/>
        </g>
        <g transform="matrix(0,-1,-1,0,95.1614,38.8817)">
            <path d="M-61.86,-61.86C-96.024,-61.86 -123.72,-34.164 -123.72,0C-123.72,34.164 -96.024,61.86 -61.86,61.86C-27.696,61.86 0,34.164 0,0C0,-34.164 -27.696,-61.86 -61.86,-61.86" style="fill:rgb(254,226,219);fill-rule:nonzero;"/>
        </g>
        <g>
            <clipPath id="_clip1">
                <path d="M33.302,100.742C33.302,134.906 60.997,162.602 95.161,162.602C129.326,162.602 157.021,134.906 157.021,100.742C157.021,66.577 129.326,38.881 95.161,38.881C60.997,38.881 33.302,66.577 33.302,100.742Z" clip-rule="nonzero"/>
            </clipPath>
            <g clip-path="url(#_clip1)">
                <g transform="matrix(0,-1,-1,0,96.2417,129.106)">
                    <path d="M-50.07,-50.07C-71.501,-50.07 -88.875,-27.653 -88.875,0C-88.875,27.653 -71.501,50.07 -50.07,50.07C-28.638,50.07 -11.265,27.653 -11.265,0C-11.265,-27.653 -28.638,-50.07 -50.07,-50.07" style="fill:rgb(254,110,164);fill-rule:nonzero;"/>
                </g>
                <g transform="matrix(0.31712,0.948385,0.948385,-0.31712,69.4088,68.6336)">
                    <path d="M40.017,-28.815C59.467,-28.033 74.476,-8.539 73.541,14.728C72.605,37.994 59.467,56.358 40.017,55.576C20.568,54.794 5.559,35.3 6.494,12.033C7.429,-11.233 20.567,-29.596 40.017,-28.815" style="fill:rgb(30,57,82);fill-rule:nonzero;"/>
                </g>
                <g transform="matrix(-0.262712,0.964874,0.964874,0.262712,100.615,155.932)">
                    <path d="M-23.617,2.111L-11.939,2.111C-11.939,2.111 -4.954,-5.776 -6.868,-16.51L-13.189,-21.198L-23.617,2.111Z" style="fill:rgb(151,117,115);fill-rule:nonzero;"/>
                </g>
                <g transform="matrix(-0.363743,-0.931499,-0.931499,0.363743,101.275,149.514)">
                    <path d="M13.689,12.119L17.483,12.119L10.908,-11.859L3.75,-6.724C5.523,0.45 9.042,6.717 13.689,12.119" style="fill:rgb(141,97,106);fill-rule:nonzero;"/>
                </g>
                <g transform="matrix(0.312348,0.949968,0.949968,-0.312348,71.3386,71.8579)">
                    <path d="M37.228,-26.949C57.545,-26.03 73.225,-7.776 72.248,13.824C71.271,35.423 57.546,52.347 37.228,51.429C16.91,50.51 1.231,32.255 2.207,10.656C3.184,-10.942 16.91,-27.867 37.228,-26.949" style="fill:rgb(151,117,115);fill-rule:nonzero;"/>
                </g>
                <g transform="matrix(1,0,0,1,114.017,98.0152)">
                    <path d="M0,-35.529C0,-35.529 11.118,-11.358 17.521,-5.922C18.032,-5.488 19.402,-7.431 19.874,-7.495C21.442,-7.708 22.403,-9.318 21.915,-10.823C10.416,-46.284 -19.81,-38.22 -24.387,-36.771C-24.788,-36.644 -25.206,-36.628 -25.619,-36.701C-35.145,-38.393 -60.157,-33.494 -64.329,-22.831C-69.993,-8.35 -64.292,-0.066 -60.176,10.755C-60.176,10.755 -42.159,-0.048 -36.929,-26.001" style="fill:rgb(30,57,82);fill-rule:nonzero;"/>
                </g>
                <g transform="matrix(1,0,0,1,73.9932,56.3409)">
                    <path d="M0,24.846C14.689,19.67 26.983,30.81 41.725,26.85C56.466,22.889 65.48,10.311 59.804,0.062C54.547,-9.429 45.864,-3.523 45.864,-3.523C47.828,-9.168 40.646,-16.223 33.902,-10.192C33.902,-10.192 32.153,-18.296 22.303,-15.132C12.452,-11.969 12.151,2.721 10.034,2.462C-2.07,0.982 -6.572,7.165 -6.572,7.165C-6.572,7.165 -26.824,7.069 -26.401,25.442C-25.995,43.142 -8.438,27.82 0,24.846" style="fill:rgb(30,57,82);fill-rule:nonzero;"/>
                </g>
                <g transform="matrix(1,0,0,1,109.917,92.8282)">
                    <path d="M0,-7.717C0,-7.717 11.172,-4.908 10.392,-1.21C9.612,2.487 -5.026,-1.051 -7.194,-3.446C-9.363,-5.841 -5.982,-10.204 0,-7.717" style="fill:rgb(30,57,82);fill-rule:nonzero;"/>
                </g>
                <g transform="matrix(1,0,0,1,75.3349,99.6692)">
                    <path d="M0,-8.478C0,-8.478 -9.657,-2.198 -7.72,1.047C-5.783,4.292 6.916,-3.802 8.19,-6.771C9.465,-9.74 4.852,-12.77 0,-8.478" style="fill:rgb(30,57,82);fill-rule:nonzero;"/>
                </g>
                <g transform="matrix(0.304466,0.952523,0.952523,-0.304466,104.166,94.3475)">
                    <path d="M8.546,-6.24C13.501,-6.241 17.518,-2.224 17.517,2.731C17.518,7.686 13.501,11.703 8.546,11.702C3.592,11.703 -0.426,7.686 -0.426,2.731C-0.425,-2.223 3.591,-6.24 8.546,-6.24" style="fill:white;fill-rule:nonzero;"/>
                </g>
                <g transform="matrix(-0.209733,0.977759,0.977759,0.209733,111.77,96.3188)">
                    <path d="M5.722,-7.081C11.703,-6.732 13.664,0.503 8.678,3.824C7.809,4.401 6.762,4.685 5.722,4.625C-0.258,4.276 -2.219,-2.959 2.767,-6.28C3.635,-6.858 4.682,-7.141 5.722,-7.081" style="fill:rgb(30,57,82);fill-rule:nonzero;"/>
                </g>
                <g transform="matrix(0.335223,0.942139,0.942139,-0.335223,108.775,106.135)">
                    <path d="M6.407,-4.52C8.533,-4.475 10.76,-1.215 10.677,2.746C10.593,6.708 8.533,9.125 6.407,9.08C4.28,9.035 2.323,6.534 2.406,2.572C2.489,-1.389 4.281,-4.565 6.407,-4.52" style="fill:rgb(141,97,106);fill-rule:nonzero;"/>
                </g>
                <g transform="matrix(-0.0906212,-0.995885,-0.995885,0.0906212,78.6433,98.7342)">
                    <path d="M-8.934,-9.785C-13.889,-9.785 -17.906,-5.768 -17.906,-0.813C-17.906,4.141 -13.888,8.158 -8.934,8.158C-3.979,8.158 0.038,4.141 0.038,-0.814C0.037,-5.768 -3.98,-9.785 -8.934,-9.785" style="fill:white;fill-rule:nonzero;"/>
                </g>
                <g transform="matrix(-0.574007,-0.81885,-0.81885,0.574007,74.7606,105.562)">
                    <path d="M-4.792,-9.213C-10.773,-8.864 -12.734,-1.63 -7.747,1.692C-6.879,2.269 -5.833,2.553 -4.792,2.492C1.188,2.144 3.149,-5.09 -1.837,-8.412C-2.705,-8.99 -3.751,-9.273 -4.792,-9.213" style="fill:rgb(30,57,82);fill-rule:nonzero;"/>
                </g>
                <g transform="matrix(-0.0582349,-0.998303,-0.998303,0.0582349,79.705,111.391)">
                    <path d="M-6.633,-7.361C-8.759,-7.316 -10.986,-4.056 -10.903,-0.094C-10.819,3.868 -8.759,6.284 -6.633,6.239C-4.506,6.194 -2.548,3.694 -2.632,-0.268C-2.715,-4.23 -4.507,-7.406 -6.633,-7.361" style="fill:rgb(141,97,106);fill-rule:nonzero;"/>
                </g>
                <g transform="matrix(-0.738554,0.674194,0.674194,0.738554,148.59,95.0519)">
                    <path d="M11.996,-13.33C11.996,-13.33 5.289,-15.341 2.387,-9.525C-0.516,-3.709 5.696,5.229 11.996,3.016C18.296,0.803 17.716,-6.723 17.716,-6.723L11.996,-13.33Z" style="fill:rgb(151,117,115);fill-rule:nonzero;"/>
                </g>
                <g transform="matrix(-0.703274,0.710919,0.710919,0.703274,144.947,95.1727)">
                    <path d="M6.886,-7.424C6.886,-7.424 2.685,-8.041 1.252,-4.762C-0.18,-1.484 3.485,3.256 6.886,1.862C10.288,0.47 9.758,-3.651 9.758,-3.651L6.886,-7.424Z" style="fill:rgb(141,97,106);fill-rule:nonzero;"/>
                </g>
                <g transform="matrix(-0.941953,-0.335743,-0.335743,0.941953,44.8272,116.701)">
                    <path d="M-9.609,-12.942C-9.609,-12.942 -2.904,-14.954 -0,-9.137C2.903,-3.321 -3.31,5.616 -9.609,3.403C-15.909,1.19 -15.329,-6.335 -15.329,-6.335L-9.609,-12.942Z" style="fill:rgb(151,117,115);fill-rule:nonzero;"/>
                </g>
                <g transform="matrix(-0.941959,-0.335729,-0.335729,0.941959,48.7278,115.727)">
                    <path d="M-5.272,-7.101C-5.272,-7.101 -1.592,-8.205 0.001,-5.014C1.593,-1.822 -1.816,3.082 -5.272,1.867C-8.729,0.653 -8.411,-3.476 -8.411,-3.476L-5.272,-7.101Z" style="fill:rgb(141,97,106);fill-rule:nonzero;"/>
                </g>
                <g transform="matrix(-0.128592,0.991698,0.991698,0.128592,96.6978,103.42)">
                    <path d="M7.048,-7.154C3.777,-2.177 2.989,5.399 2.989,5.399C2.989,5.399 4.882,6.011 7.048,5.833C6.855,1.608 8.001,-2.688 10.469,-5.811C8.822,-6.862 7.048,-7.154 7.048,-7.154" style="fill:rgb(30,57,82);fill-rule:nonzero;"/>
                </g>
                <g transform="matrix(1,0,0,1,101.576,116.286)">
                    <path d="M0,-5.127C-0.463,-2.967 -1.77,-0.632 -5.168,-0C-9.116,0.734 -11.046,-1.23 -11.987,-3.232C-8.573,-5.277 -4.164,-5.861 0,-5.127" style="fill:rgb(255,104,104);fill-rule:nonzero;"/>
                </g>
            </g>
        </g>
        <g transform="matrix(1,0,0,1,138.524,132.82)">
            <path d="M0,1.237L-4.071,2.39C-5.093,2.679 -5.873,3.628 -6.072,4.822L-6.806,9.225C-6.948,10.076 -8.16,10.106 -8.344,9.263L-9.219,5.246C-9.523,3.853 -10.496,2.783 -11.715,2.502L-15.537,1.621C-16.38,1.427 -16.41,0.236 -15.577,0.001L-11.801,-1.069C-10.599,-1.409 -9.681,-2.525 -9.447,-3.93L-8.771,-7.988C-8.629,-8.839 -7.417,-8.869 -7.233,-8.026L-6.28,-3.653C-6.024,-2.477 -5.202,-1.574 -4.173,-1.336L-0.04,-0.384C0.803,-0.19 0.833,1.001 0,1.237" style="fill:rgb(243,205,5);fill-rule:nonzero;"/>
        </g>
        <g transform="matrix(1,0,0,1,46.8634,98.7244)">
            <path d="M0,0.916L-3.017,1.77C-3.774,1.985 -4.353,2.687 -4.5,3.573L-5.044,6.836C-5.149,7.466 -6.047,7.489 -6.183,6.864L-6.832,3.887C-7.057,2.855 -7.778,2.062 -8.681,1.854L-11.513,1.201C-12.139,1.057 -12.16,0.175 -11.543,0L-8.745,-0.793C-7.854,-1.045 -7.174,-1.872 -7.001,-2.913L-6.5,-5.92C-6.395,-6.551 -5.496,-6.573 -5.36,-5.948L-4.654,-2.708C-4.464,-1.836 -3.855,-1.167 -3.092,-0.991L-0.03,-0.285C0.595,-0.141 0.617,0.741 0,0.916" style="fill:rgb(243,205,5);fill-rule:nonzero;"/>
        </g>
        <g transform="matrix(1,0,0,1,147.282,118.394)">
            <path d="M0,1.761L-1.471,2.176C-2.141,2.366 -2.662,3.021 -2.806,3.858L-3.036,5.188C-3.203,6.156 -4.487,6.163 -4.665,5.197L-4.864,4.112C-5.045,3.129 -5.666,2.364 -6.458,2.149L-7.738,1.803C-8.605,1.568 -8.612,0.243 -7.747,-0.001L-6.47,-0.361C-5.682,-0.584 -5.069,-1.355 -4.899,-2.339L-4.711,-3.428C-4.544,-4.395 -3.26,-4.402 -3.083,-3.437L-2.837,-2.101C-2.684,-1.271 -2.16,-0.625 -1.491,-0.444L-0.01,-0.043C0.857,0.192 0.864,1.517 0,1.761" style="fill:rgb(243,205,5);fill-rule:nonzero;"/>
        </g>
        <g transform="matrix(1,0,0,1,59.4468,132.558)">
            <path d="M0,1.762L-1.471,2.177C-2.141,2.366 -2.662,3.022 -2.806,3.859L-3.036,5.189C-3.203,6.157 -4.487,6.163 -4.665,5.198L-4.864,4.113C-5.045,3.13 -5.666,2.365 -6.458,2.15L-7.737,1.804C-8.604,1.569 -8.612,0.244 -7.747,-0L-6.47,-0.36C-5.682,-0.583 -5.069,-1.354 -4.899,-2.338L-4.711,-3.427C-4.544,-4.394 -3.26,-4.401 -3.083,-3.436L-2.837,-2.1C-2.684,-1.27 -2.16,-0.624 -1.491,-0.443L-0.01,-0.042C0.857,0.193 0.864,1.518 0,1.762" style="fill:rgb(243,205,5);fill-rule:nonzero;"/>
        </g>
        <g transform="matrix(1,0,0,1,146.512,77.178)">
            <path d="M0,2.184L-1.824,2.699C-2.654,2.934 -3.3,3.746 -3.479,4.783L-3.764,6.433C-3.971,7.632 -5.563,7.641 -5.783,6.444L-6.03,5.099C-6.254,3.88 -7.025,2.931 -8.006,2.665L-9.593,2.236C-10.668,1.945 -10.677,0.302 -9.605,-0L-8.021,-0.447C-7.044,-0.723 -6.285,-1.679 -6.074,-2.9L-5.841,-4.249C-5.634,-5.449 -4.042,-5.457 -3.822,-4.26L-3.517,-2.604C-3.328,-1.575 -2.677,-0.774 -1.849,-0.549L-0.012,-0.052C1.063,0.239 1.072,1.881 0,2.184" style="fill:rgb(243,205,5);fill-rule:nonzero;"/>
        </g>
    </g>
</svg>
