<?xml version="1.0" encoding="UTF-8" standalone="no"?>
<!DOCTYPE svg PUBLIC "-//W3C//DTD SVG 1.1//EN" "http://www.w3.org/Graphics/SVG/1.1/DTD/svg11.dtd">
<svg width="100%" height="100%" viewBox="0 0 320 320" version="1.1" xmlns="http://www.w3.org/2000/svg" xmlns:xlink="http://www.w3.org/1999/xlink" xml:space="preserve" xmlns:serif="http://www.serif.com/" style="fill-rule:evenodd;clip-rule:evenodd;stroke-linecap:round;stroke-miterlimit:10;">
    <g transform="matrix(1,0,0,1,-993,-460)">
        <g transform="matrix(2.32457,0,0,2.32457,211.92,43.1061)">
            <g transform="matrix(0,-1,-1,0,404.839,179.768)">
                <path d="M-68.83,-68.83C-106.844,-68.83 -137.66,-38.014 -137.66,0C-137.66,38.014 -106.844,68.83 -68.83,68.83C-30.816,68.83 0,38.014 0,0C0,-38.014 -30.816,-68.83 -68.83,-68.83" style="fill:rgb(62,203,192);fill-rule:nonzero;"/>
            </g>
            <g>
                <clipPath id="_clip1">
                    <path d="M342.978,248.598C342.978,282.762 370.674,310.458 404.839,310.458C439.003,310.458 466.699,282.762 466.699,248.598C466.699,214.434 439.003,186.738 404.839,186.738C370.674,186.738 342.978,214.434 342.978,248.598Z" clip-rule="nonzero"/>
                </clipPath>
                <g clip-path="url(#_clip1)">
                    <g transform="matrix(0,-1,-1,0,404.838,186.738)">
                        <path d="M-61.86,-61.86C-96.024,-61.86 -123.72,-34.164 -123.72,0C-123.72,34.164 -96.024,61.86 -61.86,61.86C-27.696,61.86 0,34.164 0,0C0,-34.164 -27.696,-61.86 -61.86,-61.86" style="fill:rgb(201,181,217);fill-rule:nonzero;"/>
                    </g>
                    <g transform="matrix(0,-1,-1,0,406.375,266.131)">
                        <path d="M-51.108,-51.108C-68.248,-51.108 -82.142,-28.227 -82.142,-0.001C-82.142,28.225 -68.248,51.108 -51.108,51.108C-33.968,51.108 -20.074,28.225 -20.074,-0.001C-20.074,-28.227 -33.968,-51.108 -51.108,-51.108" style="fill:rgb(255,104,104);fill-rule:nonzero;"/>
                    </g>
                    <g transform="matrix(0.256467,0.966553,0.966553,-0.256467,409.687,273.055)">
                        <path d="M1.62,-20.035L14.737,-20.035C14.737,-20.035 22.468,-11.371 20.163,0.417L12.998,5.568L1.62,-20.035Z" style="fill:rgb(255,173,143);fill-rule:nonzero;"/>
                    </g>
                    <g transform="matrix(0.355858,-0.93454,-0.93454,-0.355858,410.587,275.908)">
                        <path d="M-9.213,-10.251L-4.959,-10.251L-11.876,16.127L-19.999,10.477C-18.148,2.585 -14.322,-4.309 -9.213,-10.251" style="fill:rgb(255,142,108);fill-rule:nonzero;"/>
                    </g>
                    <g transform="matrix(0.239012,-0.971017,-0.971017,-0.239012,425.537,206.912)">
                        <path d="M-44.441,-34.828C-65.538,-33.98 -81.816,-12.835 -80.802,12.401C-79.788,37.637 -65.536,57.554 -44.441,56.707C-23.346,55.86 -7.066,34.714 -8.08,9.478C-9.095,-15.758 -23.346,-35.675 -44.441,-34.828" style="fill:rgb(30,57,82);fill-rule:nonzero;"/>
                    </g>
                    <g transform="matrix(0.234132,-0.972205,-0.972205,-0.234132,423.947,210.73)">
                        <path d="M-41.325,-32.554C-63.363,-31.557 -80.369,-11.757 -79.31,11.67C-78.251,35.098 -63.363,53.455 -41.325,52.458C-19.287,51.462 -2.28,31.662 -3.34,8.235C-4.399,-15.193 -19.287,-33.55 -41.325,-32.554" style="fill:rgb(255,173,143);fill-rule:nonzero;"/>
                    </g>
                    <g transform="matrix(1,0,0,1,418.333,243.379)">
                        <path d="M0,-44.89C-25.559,-52.282 -51.915,-38.783 -58.869,-14.74C-59.199,-13.599 -60.599,-5.842 -60.826,-4.714C-60.826,-4.714 -56.374,-4.159 -55.062,-4.754C-47.901,-8 -43.958,-18.515 -43.958,-18.515L-36.951,-17.231L-33.443,-24.868L-32.295,-16.378L-22.36,-14.557L-18.327,-23.335L-17.008,-13.576L1.237,-10.232L4.237,-16.763L5.219,-9.502L11.324,-8.383L16.505,-19.66L18.199,-7.123L24.172,-6.028C24.172,-6.028 26.086,4.918 28.992,6.678C30.172,7.392 34.469,6.02 34.469,6.02C38.85,-23.992 23.33,-38.143 0,-44.89" style="fill:rgb(30,57,82);fill-rule:nonzero;"/>
                    </g>
                    <g transform="matrix(1,0,0,1,386.419,238.819)">
                        <path d="M0,-8.663C0,-8.663 -11.83,-4.642 -10.661,-0.713C-9.492,3.216 6.02,-1.9 8.154,-4.68C10.287,-7.46 6.247,-11.879 0,-8.663" style="fill:rgb(30,57,82);fill-rule:nonzero;"/>
                    </g>
                    <g transform="matrix(1,0,0,1,424.779,243.969)">
                        <path d="M0,-9.083C0,-9.083 10.993,-3.145 9.185,0.534C7.377,4.212 -7.064,-3.419 -8.704,-6.516C-10.344,-9.613 -5.624,-13.295 0,-9.083" style="fill:rgb(30,57,82);fill-rule:nonzero;"/>
                    </g>
                    <g transform="matrix(0.226083,-0.974108,-0.974108,-0.226083,392.756,239.257)">
                        <path d="M-9.479,-7.531C-14.853,-7.531 -19.21,-3.174 -19.21,2.2C-19.21,7.574 -14.853,11.931 -9.479,11.931C-4.105,11.931 0.252,7.575 0.252,2.2C0.252,-3.174 -4.105,-7.531 -9.479,-7.531" style="fill:white;fill-rule:nonzero;"/>
                    </g>
                    <g transform="matrix(-0.288497,-0.957481,-0.957481,0.288497,384.963,242.703)">
                        <path d="M-6.077,-8.18C-12.564,-7.802 -14.691,0.046 -9.282,3.647C-8.341,4.275 -7.206,4.582 -6.077,4.517C0.41,4.137 2.536,-3.709 -2.872,-7.311C-3.813,-7.938 -4.948,-8.246 -6.077,-8.18" style="fill:rgb(30,57,82);fill-rule:nonzero;"/>
                    </g>
                    <g transform="matrix(0.257595,-0.966253,-0.966253,-0.257595,388.965,252.489)">
                        <path d="M-7.093,-5.502C-9.4,-5.453 -11.815,-1.917 -11.725,2.38C-11.635,6.677 -9.4,9.298 -7.093,9.25C-4.787,9.201 -2.663,6.489 -2.754,2.192C-2.844,-2.106 -4.787,-5.55 -7.093,-5.502" style="fill:rgb(255,142,108);fill-rule:nonzero;"/>
                    </g>
                    <g transform="matrix(-0.00940301,0.999956,0.999956,0.00940301,420.638,242.079)">
                        <path d="M9.731,-9.822C15.105,-9.822 19.461,-5.465 19.462,-0.091C19.461,5.283 15.105,9.64 9.731,9.64C4.357,9.64 -0,5.283 0,-0.091C-0,-5.465 4.357,-9.822 9.731,-9.822" style="fill:white;fill-rule:nonzero;"/>
                    </g>
                    <g transform="matrix(-0.505584,0.862777,0.862777,0.505584,425.994,248.706)">
                        <path d="M5.477,-9.558C11.963,-9.18 14.091,-1.332 8.682,2.269C7.74,2.896 6.605,3.204 5.477,3.138C-1.01,2.759 -3.137,-5.088 2.272,-8.69C3.212,-9.316 4.348,-9.624 5.477,-9.558" style="fill:rgb(30,57,82);fill-rule:nonzero;"/>
                    </g>
                    <g transform="matrix(0.0231156,0.999733,0.999733,-0.0231156,420.749,255.876)">
                        <path d="M7.237,-7.338C9.544,-7.29 11.958,-3.753 11.868,0.544C11.779,4.84 9.544,7.461 7.237,7.414C4.93,7.365 2.808,4.652 2.898,0.355C2.987,-3.942 4.93,-7.387 7.237,-7.338" style="fill:rgb(255,142,108);fill-rule:nonzero;"/>
                    </g>
                    <g transform="matrix(-0.79088,-0.611971,-0.611971,0.79088,346.123,244.643)">
                        <path d="M-12.304,-14.333C-12.304,-14.333 -5.031,-16.515 -1.882,-10.206C1.267,-3.897 -5.471,5.798 -12.304,3.397C-19.137,0.997 -18.508,-7.167 -18.508,-7.167L-12.304,-14.333Z" style="fill:rgb(255,173,143);fill-rule:nonzero;"/>
                    </g>
                    <g transform="matrix(-0.758724,-0.651412,-0.651412,0.758724,349.486,244.275)">
                        <path d="M-7.331,-8.138C-7.331,-8.138 -2.774,-8.808 -1.22,-5.251C0.334,-1.695 -3.642,3.446 -7.331,1.935C-11.019,0.424 -10.445,-4.046 -10.445,-4.046L-7.331,-8.138Z" style="fill:rgb(255,142,108);fill-rule:nonzero;"/>
                    </g>
                    <g transform="matrix(-0.911572,0.411141,0.411141,0.911572,460.06,258.472)">
                        <path d="M10.911,-14.15C10.911,-14.15 3.638,-16.331 0.488,-10.022C-2.661,-3.714 4.077,5.98 10.911,3.579C17.743,1.179 17.114,-6.983 17.114,-6.983L10.911,-14.15Z" style="fill:rgb(255,173,143);fill-rule:nonzero;"/>
                    </g>
                    <g transform="matrix(-0.91156,0.411168,0.411168,0.91156,455.537,257.808)">
                        <path d="M5.987,-7.765C5.987,-7.765 1.996,-8.962 0.268,-5.5C-1.46,-2.038 2.238,3.281 5.987,1.964C9.737,0.646 9.391,-3.833 9.391,-3.833L5.987,-7.765Z" style="fill:rgb(255,142,108);fill-rule:nonzero;"/>
                    </g>
                    <g transform="matrix(-0.989822,-0.142313,-0.142313,0.989822,399.335,257.575)">
                        <path d="M-8.836,-2.489C-8.836,-2.489 -4.33,1.344 0.271,-2.489" style="fill:none;fill-rule:nonzero;stroke:rgb(30,57,82);stroke-width:0.74px;"/>
                    </g>
                </g>
            </g>
            <g transform="matrix(1,0,0,1,374.821,281.29)">
                <path d="M0,1.237L-4.071,2.39C-5.093,2.679 -5.873,3.628 -6.072,4.822L-6.806,9.225C-6.948,10.076 -8.16,10.106 -8.344,9.263L-9.219,5.246C-9.523,3.853 -10.496,2.783 -11.715,2.502L-15.537,1.622C-16.38,1.427 -16.41,0.237 -15.577,0.001L-11.801,-1.069C-10.599,-1.409 -9.681,-2.525 -9.447,-3.93L-8.771,-7.988C-8.629,-8.839 -7.417,-8.869 -7.233,-8.026L-6.28,-3.653C-6.024,-2.477 -5.202,-1.573 -4.173,-1.336L-0.04,-0.384C0.803,-0.189 0.833,1.001 0,1.237" style="fill:rgb(243,205,5);fill-rule:nonzero;"/>
            </g>
            <g transform="matrix(1,0,0,1,360.648,263.863)">
                <path d="M0,0.916L-3.017,1.77C-3.774,1.985 -4.352,2.688 -4.5,3.573L-5.043,6.836C-5.149,7.466 -6.047,7.489 -6.183,6.864L-6.832,3.887C-7.057,2.855 -7.778,2.062 -8.681,1.854L-11.513,1.201C-12.138,1.057 -12.16,0.175 -11.543,0L-8.745,-0.793C-7.854,-1.045 -7.174,-1.872 -7.001,-2.913L-6.5,-5.92C-6.395,-6.551 -5.496,-6.573 -5.36,-5.948L-4.654,-2.708C-4.464,-1.836 -3.855,-1.167 -3.092,-0.991L-0.03,-0.285C0.595,-0.141 0.617,0.741 0,0.916" style="fill:rgb(243,205,5);fill-rule:nonzero;"/>
            </g>
            <g transform="matrix(1,0,0,1,449.567,278.553)">
                <path d="M0,1.761L-1.471,2.176C-2.141,2.366 -2.662,3.021 -2.806,3.858L-3.036,5.188C-3.203,6.156 -4.487,6.163 -4.665,5.197L-4.864,4.112C-5.045,3.129 -5.666,2.364 -6.458,2.149L-7.738,1.803C-8.605,1.568 -8.612,0.243 -7.747,-0.001L-6.47,-0.361C-5.682,-0.584 -5.069,-1.355 -4.899,-2.339L-4.711,-3.428C-4.544,-4.395 -3.26,-4.402 -3.083,-3.437L-2.837,-2.101C-2.684,-1.271 -2.16,-0.625 -1.491,-0.444L-0.01,-0.043C0.857,0.192 0.864,1.517 0,1.761" style="fill:rgb(243,205,5);fill-rule:nonzero;"/>
            </g>
            <g transform="matrix(1,0,0,1,373.935,208.052)">
                <path d="M0,1.761L-1.471,2.176C-2.141,2.366 -2.662,3.021 -2.806,3.858L-3.036,5.188C-3.203,6.156 -4.487,6.163 -4.665,5.197L-4.864,4.112C-5.045,3.129 -5.666,2.364 -6.458,2.149L-7.738,1.803C-8.605,1.568 -8.612,0.243 -7.747,-0.001L-6.47,-0.361C-5.682,-0.584 -5.069,-1.355 -4.899,-2.339L-4.711,-3.428C-4.544,-4.395 -3.26,-4.402 -3.083,-3.437L-2.837,-2.101C-2.684,-1.271 -2.16,-0.625 -1.491,-0.444L-0.01,-0.043C0.857,0.192 0.864,1.517 0,1.761" style="fill:rgb(243,205,5);fill-rule:nonzero;"/>
            </g>
            <g transform="matrix(1,0,0,1,460.615,236.34)">
                <path d="M0,2.184L-1.824,2.699C-2.654,2.934 -3.3,3.746 -3.479,4.783L-3.764,6.433C-3.971,7.632 -5.563,7.641 -5.783,6.444L-6.03,5.099C-6.254,3.88 -7.025,2.931 -8.006,2.665L-9.593,2.236C-10.668,1.945 -10.676,0.302 -9.605,-0L-8.021,-0.447C-7.044,-0.723 -6.285,-1.679 -6.074,-2.9L-5.841,-4.249C-5.633,-5.448 -4.042,-5.457 -3.822,-4.26L-3.517,-2.604C-3.328,-1.575 -2.677,-0.774 -1.849,-0.549L-0.012,-0.052C1.063,0.239 1.072,1.881 0,2.184" style="fill:rgb(243,205,5);fill-rule:nonzero;"/>
            </g>
        </g>
    </g>
</svg>
